<?xml version="1.0" encoding="UTF-8"?>
<svg id="Layer_1" data-name="Layer 1" xmlns="http://www.w3.org/2000/svg" xmlns:xlink="http://www.w3.org/1999/xlink" viewBox="0 0 1079.8 93">
  <defs>
    <clipPath id="clippath">
      <rect x="-1736.38" y="-1816.38" width="4563.76" height="1315" transform="translate(-613.38 -1704.38) rotate(90)" style="fill: none;"/>
    </clipPath>
  </defs>
  <g style="clip-path: url(#clippath);">
    <rect x="-112" y="-49.91" width="1315" height="61.73" style="fill: #2c1b59;"/>
    <rect x="-112" y="11.82" width="1315" height="61.73" style="fill: #2c1b59;"/>
    <rect x="-112" y="73.55" width="1315" height="61.73" style="fill: #2c1b58;"/>
  </g>
  <rect x="326.9" y="9" width="426" height="73" rx="29.74" ry="29.74" style="fill: #f15a26;"/>
  <g>
    <path d="M506.58,37.21l-1.8,2.39c-2.29-1.12-3.82-3.23-4.71-5.81-.93,2.77-2.58,5.03-4.99,6.21l-1.85-2.41c3.61-1.66,5.32-5.74,5.32-9.7v-3.19h3v3.19c-.02,3.82,1.62,7.69,5.04,9.33ZM510.51,31.29h3.14v2.53h-3.14v10.57h-3v-21.33h3v8.23Z" style="fill: #fff;"/>
    <path d="M527.39,33.46l-1.48,2.37c-2.37-.76-3.98-2.32-4.92-4.27-.94,2.16-2.64,3.87-5.16,4.71l-1.52-2.44c3.52-1.1,5.11-3.89,5.13-6.61v-.33h-4.29v-2.39h11.58v2.39h-4.24v.35c0,2.46,1.5,5.11,4.9,6.21ZM532.92,44.01h-14.67v-6.73h3v4.34h11.67v2.39ZM532.4,38.64h-2.98v-7.64h-3.49v-2.41h3.49v-5.51h2.98v15.56Z" style="fill: #fff;"/>
    <path d="M554.67,35.25h-19.5v-2.44h19.5v2.44ZM552.3,40.45c-.02,2.53-2.81,3.94-7.43,3.94s-7.48-1.41-7.48-3.94,2.81-3.91,7.48-3.91,7.41,1.41,7.43,3.91ZM552.44,31.31h-14.91v-7.69h14.79v2.41h-11.81v2.91h11.93v2.37ZM540.44,40.45c-.02,1.12,1.48,1.66,4.43,1.66s4.41-.54,4.43-1.66c-.02-1.08-1.55-1.64-4.43-1.64s-4.45.56-4.43,1.64Z" style="fill: #fff;"/>
    <path d="M575.41,36.89h-19.52v-2.39h8.27v-1.55h-5.84v-5.86h11.72v-1.31h-11.77v-2.32h14.77v5.79h-11.74v1.41h12.14v2.3h-6.3v1.55h8.27v2.39ZM573.16,44.29h-3.02v-3.84h-12.07v-2.34h15.09v6.19Z" style="fill: #fff;"/>
  </g>
  <g>
    <path d="M471.4,51.59h4.8c3.32,0,4.82,1.97,4.82,4.49s-1.5,4.51-4.8,4.51h-3.07v5.14h-1.76v-14.14ZM476.15,59.03c2.25,0,3.14-1.27,3.14-2.95s-.9-2.93-3.16-2.93h-2.97v5.88h2.99Z" style="fill: #fff;"/>
    <path d="M483.27,55.12h1.62v1.62h.12c.39-1.07,1.48-1.8,2.73-1.8.25,0,.68.02.88.04v1.7c-.12-.04-.59-.12-1.02-.12-1.52,0-2.66,1.05-2.66,2.48v6.68h-1.68v-10.61Z" style="fill: #fff;"/>
    <path d="M489.42,60.52c0-3.26,1.91-5.53,4.8-5.53,2.23,0,4.57,1.37,4.57,5.29v.7h-7.7c.08,2.25,1.39,3.48,3.28,3.48,1.27,0,2.07-.55,2.46-1.21h1.8c-.51,1.6-2.07,2.7-4.26,2.7-3.07,0-4.96-2.17-4.96-5.43ZM497.09,59.56c0-1.78-1.13-3.09-2.87-3.09-1.84,0-3.01,1.45-3.11,3.09h5.98Z" style="fill: #fff;"/>
    <path d="M507.05,60.46h-6.19v-1.54h6.19v1.54Z" style="fill: #fff;"/>
    <path d="M509.63,55.12h1.62v1.62h.12c.39-1.07,1.48-1.8,2.73-1.8.25,0,.68.02.88.04v1.7c-.12-.04-.59-.12-1.02-.12-1.52,0-2.66,1.05-2.66,2.48v6.68h-1.68v-10.61Z" style="fill: #fff;"/>
    <path d="M515.77,60.52c0-3.26,1.91-5.53,4.8-5.53,2.23,0,4.57,1.37,4.57,5.29v.7h-7.7c.08,2.25,1.39,3.48,3.28,3.48,1.27,0,2.07-.55,2.46-1.21h1.8c-.51,1.6-2.07,2.7-4.26,2.7-3.07,0-4.96-2.17-4.96-5.43ZM523.45,59.56c0-1.78-1.13-3.09-2.87-3.09-1.84,0-3.01,1.45-3.11,3.09h5.98Z" style="fill: #fff;"/>
    <path d="M527.14,66.84h1.76c.23,1.07,1.23,1.62,2.73,1.62,1.82,0,2.93-.78,2.93-2.54v-2.15h-.14c-.35.59-1.04,1.8-3.09,1.8-2.58,0-4.51-1.95-4.51-5.29s1.88-5.29,4.53-5.29c2.05,0,2.71,1.25,3.11,1.82h.14v-1.68h1.64v10.9c0,2.73-2.03,3.91-4.61,3.91s-4.3-1.11-4.49-3.09ZM534.6,60.34c0-2.27-1.05-3.85-3.03-3.85s-3.05,1.72-3.05,3.85,1.04,3.73,3.05,3.73,3.03-1.39,3.03-3.73Z" style="fill: #fff;"/>
    <path d="M538.59,52.25c0-.62.53-1.11,1.17-1.11s1.19.49,1.19,1.11-.55,1.11-1.19,1.11-1.17-.49-1.17-1.11ZM538.92,55.12h1.68v10.61h-1.68v-10.61Z" style="fill: #fff;"/>
    <path d="M547.02,56.41c-1.31,0-2.25.7-2.25,1.6,0,.7.57,1.19,1.82,1.48l1.58.39c1.89.45,2.83,1.39,2.83,2.87,0,1.84-1.5,3.18-4.16,3.18-2.38,0-3.81-1.05-4.08-2.99h1.76c.2,1.04.96,1.52,2.29,1.52,1.5,0,2.46-.62,2.46-1.62,0-.74-.53-1.25-1.74-1.52l-1.6-.37c-1.86-.43-2.83-1.45-2.83-2.85,0-1.82,1.58-3.12,3.93-3.12,2.19,0,3.57,1.17,3.79,2.89h-1.64c-.23-.88-.9-1.46-2.15-1.46Z" style="fill: #fff;"/>
    <path d="M557.82,56.53h-2.23v6.15c0,1.37.66,1.58,1.39,1.58.31,0,.74-.02,1-.04v1.56c-.25.04-.68.08-1.17.08-1.41,0-2.91-.88-2.91-2.75v-6.58h-1.6v-1.41h1.6v-2.54h1.7v2.54h2.23v1.41Z" style="fill: #fff;"/>
    <path d="M559.99,55.12h1.62v1.62h.12c.39-1.07,1.48-1.8,2.73-1.8.25,0,.68.02.88.04v1.7c-.12-.04-.59-.12-1.02-.12-1.52,0-2.66,1.05-2.66,2.48v6.68h-1.68v-10.61Z" style="fill: #fff;"/>
    <path d="M570.45,59.6c.67-.05,2.39-.14,2.87-.16v-.86c0-1.35-.8-2.13-2.4-2.13-1.35,0-2.15.62-2.38,1.43h-1.76c.21-1.7,1.88-2.89,4.22-2.89,1.39,0,3.98.41,3.98,3.75v6.99h-1.66v-1.45h-.08c-.35.72-1.33,1.7-3.16,1.7-2.01,0-3.61-1.19-3.61-3.26,0-2.44,2.15-2.99,3.98-3.12ZM570.37,64.48c1.89,0,2.95-1.27,2.95-2.6v-1.07l-2.68.2c-1.52.1-2.5.64-2.5,1.8s.94,1.68,2.23,1.68Z" style="fill: #fff;"/>
    <path d="M582.31,56.53h-2.23v6.15c0,1.37.66,1.58,1.39,1.58.31,0,.74-.02,1-.04v1.56c-.25.04-.68.08-1.17.08-1.41,0-2.91-.88-2.91-2.75v-6.58h-1.6v-1.41h1.6v-2.54h1.7v2.54h2.23v1.41Z" style="fill: #fff;"/>
    <path d="M584.14,52.25c0-.62.53-1.11,1.17-1.11s1.19.49,1.19,1.11-.55,1.11-1.19,1.11-1.17-.49-1.17-1.11ZM584.48,55.12h1.68v10.61h-1.68v-10.61Z" style="fill: #fff;"/>
    <path d="M588.32,60.48c0-3.3,1.95-5.49,4.84-5.49s4.8,2.19,4.8,5.49-1.93,5.47-4.8,5.47-4.84-2.17-4.84-5.47ZM596.29,60.48c0-2.11-1-4-3.12-4s-3.16,1.89-3.16,4,1,3.98,3.16,3.98,3.12-1.88,3.12-3.98Z" style="fill: #fff;"/>
    <path d="M601.86,65.73h-1.68v-10.61h1.62v1.66h.14c.51-1.07,1.48-1.8,3.11-1.8,2.15,0,3.57,1.31,3.57,4v6.74h-1.68v-6.62c0-1.64-.9-2.62-2.4-2.62s-2.68,1.04-2.68,2.87v6.37Z" style="fill: #fff;"/>
  </g>
</svg>