<?xml version="1.0" encoding="UTF-8"?>
<svg id="Layer_1" data-name="Layer 1" xmlns="http://www.w3.org/2000/svg" xmlns:xlink="http://www.w3.org/1999/xlink" viewBox="0 0 1080 389">
  <defs>
    <clipPath id="clippath">
      <rect x="-1736.18" y="-2550.38" width="4563.76" height="1315" transform="translate(-1347.18 -2438.58) rotate(90)" style="fill: none;"/>
    </clipPath>
    <clipPath id="clippath-1">
      <path d="M142.1,248.47c22.21,3.16,44.92,4.79,68,4.79s45.79-1.63,68-4.79c-22.21-3.16-44.91-4.79-68-4.79s-45.79,1.63-68,4.79" style="fill: none;"/>
    </clipPath>
    <clipPath id="clippath-2">
      <rect x="142.1" y="243.68" width="136" height="9.58" style="fill: none;"/>
    </clipPath>
  </defs>
  <g style="clip-path: url(#clippath);">
    <rect x="-111.8" y="-43.13" width="1315" height="61.73" style="fill: #2b1a57;"/>
    <rect x="-111.8" y="18.61" width="1315" height="61.73" style="fill: #2b1a57;"/>
    <rect x="-111.8" y="80.34" width="1315" height="61.73" style="fill: #2b1a57;"/>
    <rect x="-111.8" y="142.07" width="1315" height="61.73" style="fill: #2b1a57;"/>
    <rect x="-111.8" y="203.8" width="1315" height="61.73" style="fill: #2b1a57;"/>
    <rect x="-111.8" y="265.54" width="1315" height="61.73" style="fill: #2b1a57;"/>
    <rect x="-111.8" y="327.27" width="1315" height="61.73" style="fill: #2b1a57;"/>
  </g>
  <rect x="50.1" y="-608" width="980" height="823.63" style="fill: #fff;"/>
  <rect x="50.1" y="-.37" width="980" height="289" style="fill: #fddac6;"/>
  <g>
    <g>
      <path d="M592.79,222.29c-3.91,0-7.09,3.17-7.09,7.09s3.17,7.09,7.09,7.09h5.67v-14.17h-5.67ZM597.69,235.7h-4.9c-3.48,0-6.32-2.84-6.32-6.32s2.84-6.32,6.32-6.32h4.9v12.64Z" style="fill: #a089b5;"/>
      <path d="M577.68,222.29h-5.58v14.17h5.67c3.93,0,7.11-3.2,7.09-7.14-.03-3.91-3.27-7.03-7.17-7.03Z" style="fill: #622b88;"/>
      <path d="M577.77,237.31h-5.67v14.17h5.67c3.91,0,7.09-3.17,7.09-7.09s-3.17-7.09-7.09-7.09Z" style="fill: #622b88;"/>
      <path d="M604.98,237.31h-5.67v14.17h5.67c3.91,0,7.09-3.17,7.09-7.09s-3.17-7.09-7.09-7.09Z" style="fill: #622b88;"/>
      <path d="M603.6,222.29h5.67v14.17h-5.67c-3.91,0-7.09-3.17-7.09-7.09s3.17-7.09,7.09-7.09Z" style="fill: #622b88;"/>
      <path d="M592.79,237.31h5.67v14.17h-5.67c-3.91,0-7.09-3.17-7.09-7.09s3.17-7.09,7.09-7.09Z" style="fill: #622b88;"/>
    </g>
    <g>
      <path d="M632.22,236.57c-2.76.24-5.04.43-6.83.57-1.8.14-4.12.28-6.97.44l-.29-1.79c1.25-.04,2.51-.09,3.77-.15,1.27-.06,2.23-.1,2.89-.13v-4.74h-4.69v-6.66h1.91v4.95h9v1.71h-4.31v4.65c1.33-.07,2.38-.14,3.14-.2.76-.06,1.51-.13,2.28-.2l.09,1.56ZM635.04,241.12h-1.91v-19h1.91v19Z" style="fill: #622b88;"/>
      <path d="M643.49,223.87c1.48,0,2.69.43,3.63,1.29.94.86,1.41,1.93,1.41,3.21s-.47,2.35-1.41,3.2c-.94.85-2.15,1.28-3.63,1.28s-2.67-.43-3.61-1.28c-.94-.85-1.41-1.92-1.41-3.2s.47-2.35,1.41-3.21c.94-.86,2.14-1.29,3.61-1.29ZM643.49,231.04c.94,0,1.7-.26,2.29-.78.59-.52.88-1.15.88-1.89s-.29-1.41-.87-1.95c-.58-.55-1.35-.82-2.3-.82-1.01,0-1.79.27-2.32.82-.54.55-.8,1.2-.8,1.95s.28,1.37.85,1.89c.56.52,1.32.78,2.28.78ZM654.67,240.75h-13.51v-6.21h1.91v4.5h11.6v1.71ZM653.97,236.61h-1.91v-14.5h1.91v14.5Z" style="fill: #622b88;"/>
      <path d="M666.12,231.89c.57.97,1.26,1.78,2.07,2.43.81.65,1.54,1.2,2.2,1.62l-1.54,1.34c-.51-.37-1.08-.83-1.68-1.39-.61-.55-1.17-1.16-1.68-1.81-.41-.54-.76-1.07-1.05-1.59-.29-.52-.5-1-.65-1.44-.18.46-.43.98-.76,1.56-.33.58-.69,1.12-1.09,1.62-.51.64-1.09,1.25-1.74,1.83-.65.58-1.22,1.06-1.72,1.46l-1.52-1.3c.62-.43,1.3-.96,2.06-1.59.76-.63,1.48-1.45,2.17-2.44.53-.74.94-1.59,1.23-2.56.29-.97.44-1.86.44-2.69v-.75h-4.36v-1.73h10.87v1.73h-4.45v.7c0,.85.09,1.72.26,2.58.18.87.48,1.67.92,2.41ZM673.78,241.12h-1.91v-19h1.91v19Z" style="fill: #622b88;"/>
      <path d="M690.51,235.65c-3.13.31-5.33.53-6.6.66-1.28.13-3.22.31-5.83.55l-.57-1.81c.7-.03,1.34-.05,1.9-.06.56-.01,1.25-.05,2.06-.11v-6.02h1.94v5.89c1.44-.11,2.56-.21,3.38-.3.81-.09,1.95-.2,3.42-.34l.31,1.54ZM688.72,224.76c-.09,2.19-.19,3.68-.32,4.46-.12.78-.33,1.75-.63,2.9l-1.89-.21c.21-.84.39-1.66.56-2.47.17-.8.25-1.8.25-2.98h-8.08v-1.71h10.1ZM696.05,232.58h-3.04v8.54h-1.94v-19h1.94v8.75h3.04v1.71Z" style="fill: #622b88;"/>
      <path d="M708.91,226.81h-11.53v-1.45h11.53v1.45ZM703.27,227.62c1.36,0,2.48.23,3.36.68.87.46,1.31,1.2,1.31,2.22s-.44,1.81-1.32,2.31c-.88.5-2,.75-3.35.75s-2.5-.25-3.41-.74c-.91-.49-1.36-1.26-1.36-2.3s.45-1.79,1.35-2.24c.9-.46,2.04-.68,3.42-.68ZM712.78,241.14h-1.94v-4.87h-11.71v-1.71h13.65v6.58ZM703.27,232.15c.87,0,1.56-.14,2.07-.43.51-.28.77-.68.77-1.2,0-.48-.26-.85-.77-1.1-.51-.25-1.21-.37-2.09-.37s-1.58.12-2.11.37c-.53.25-.79.62-.79,1.1s.27.88.8,1.17c.54.3,1.24.45,2.12.45ZM706.15,224.29h-5.35v-1.45h5.35v1.45ZM715.71,230.08h-2.93v3.59h-1.94v-11.55h1.94v6.26h2.93v1.71Z" style="fill: #622b88;"/>
      <path d="M730.12,235.65c-3.13.31-5.33.53-6.6.66-1.28.13-3.22.31-5.83.55l-.57-1.81c.7-.03,1.34-.05,1.9-.06.56-.01,1.25-.05,2.06-.11v-6.02h1.94v5.89c1.44-.11,2.56-.21,3.38-.3.81-.09,1.95-.2,3.42-.34l.31,1.54ZM728.34,224.76c-.09,2.19-.19,3.68-.32,4.46-.12.78-.33,1.75-.63,2.9l-1.89-.21c.21-.84.39-1.66.56-2.47.17-.8.25-1.8.25-2.98h-8.08v-1.71h10.1ZM735.67,232.58h-3.04v8.54h-1.94v-19h1.94v8.75h3.04v1.71Z" style="fill: #622b88;"/>
    </g>
    <g>
      <path d="M618.52,244.5h3.42c.65,0,1.16.15,1.53.44.37.29.56.72.56,1.29,0,.34-.09.64-.26.9s-.42.45-.74.58v.02c.43.09.75.29.98.61.23.32.34.71.34,1.18,0,.58-.22,1.05-.64,1.4-.43.36-1.08.54-1.94.54h-3.23v-6.96ZM619.75,247.41h2.01c.3,0,.55-.08.74-.25.19-.17.29-.41.29-.71,0-.34-.09-.59-.26-.74-.17-.15-.43-.22-.78-.22h-2.01v1.92ZM619.75,250.46h2.18c.37,0,.66-.1.87-.29.21-.19.31-.46.31-.81s-.1-.6-.31-.79c-.21-.19-.5-.28-.87-.28h-2.18v2.17Z" style="fill: #622b88;"/>
      <path d="M625.18,246.42h1.05v.97h.02c.03-.14.1-.27.19-.4.09-.13.21-.25.35-.36.14-.11.29-.19.46-.26.16-.06.33-.1.49-.1.13,0,.25,0,.35.02.03,0,.06,0,.07,0v1.07s-.06-.01-.11-.02c-.17-.02-.3-.03-.37-.03-.4,0-.73.15-.99.46-.26.31-.39.73-.39,1.27v2.4h-1.12v-5.04Z" style="fill: #622b88;"/>
      <path d="M632.8,250.34c0,.14.02.23.06.29.04.06.11.09.21.09.1,0,.2,0,.28-.02v.77c-.09.03-.21.06-.35.09-.14.03-.26.04-.35.04-.24,0-.44-.05-.59-.14-.15-.09-.24-.25-.28-.47-.21.2-.48.35-.8.46-.32.1-.64.16-.97.16-.49,0-.91-.13-1.24-.39-.33-.26-.5-.62-.5-1.09,0-.3.05-.55.16-.75.11-.2.25-.35.44-.46.18-.11.39-.19.61-.24.22-.05.47-.09.75-.13.11-.02.28-.04.49-.07.37-.05.63-.11.79-.18.16-.07.24-.23.24-.46,0-.14-.03-.25-.09-.34-.06-.09-.14-.16-.25-.21-.1-.05-.21-.08-.33-.1s-.25-.03-.38-.03c-.33,0-.59.07-.79.2-.2.13-.31.33-.33.6h-1.12c.02-.31.1-.58.23-.79.13-.22.31-.39.52-.52.22-.13.46-.22.72-.28.27-.06.55-.08.84-.08.26,0,.51.03.75.08.24.06.46.14.65.26.19.12.35.27.46.46.11.19.17.41.17.66v2.59ZM631.68,248.93c-.11.07-.24.12-.39.16-.15.03-.33.06-.56.09-.18.02-.33.04-.43.06-.28.05-.51.13-.67.25-.16.12-.25.32-.25.58,0,.12.03.22.1.3.07.08.15.15.26.2.1.05.22.08.34.11.12.02.23.03.34.03.13,0,.27-.02.42-.05.15-.04.29-.09.41-.17.13-.08.23-.18.31-.3.08-.12.12-.26.12-.43v-.83Z" style="fill: #622b88;"/>
      <path d="M633.94,244.5h1.12v1.05h-1.12v-1.05ZM633.94,246.42h1.12v5.04h-1.12v-5.04Z" style="fill: #622b88;"/>
      <path d="M636.17,246.42h1.06v.74l.02.02c.17-.28.39-.5.67-.66.28-.16.58-.24.92-.24.56,0,1.01.15,1.32.44.32.3.48.72.48,1.27v3.46h-1.12v-3.17c0-.39-.09-.68-.25-.86-.16-.18-.41-.27-.74-.27-.37,0-.66.13-.89.38-.23.25-.34.57-.34.95v2.97h-1.12v-5.04Z" style="fill: #622b88;"/>
      <path d="M646.6,250.68c-.26.31-.54.54-.87.69-.32.15-.69.22-1.1.22-.66,0-1.19-.18-1.6-.55-.41-.37-.62-.87-.62-1.52,0-.45.15-.84.45-1.16.3-.33.69-.61,1.17-.85-.23-.29-.41-.55-.53-.77-.12-.22-.18-.47-.18-.75,0-.49.17-.89.5-1.2.33-.31.74-.46,1.23-.46s.9.15,1.24.44c.34.29.51.7.51,1.23,0,.38-.12.72-.35,1.02-.24.3-.54.54-.92.75l1.09,1.31c.05-.13.09-.27.13-.41.04-.15.07-.32.09-.52h.98c-.04.32-.1.62-.19.92-.09.29-.21.56-.36.79l1.35,1.62h-1.38l-.64-.78ZM644.62,248.24s-.09.05-.2.12c-.28.15-.5.31-.65.47-.15.17-.23.4-.23.72,0,.36.1.65.32.86.21.21.48.31.82.31s.58-.07.76-.19c.18-.13.35-.3.51-.51l.06-.08-1.38-1.7ZM644.54,245.37c-.14.14-.22.33-.22.56,0,.16.04.3.12.44.08.14.19.3.34.5.09.1.14.18.18.22.27-.18.47-.35.62-.52.14-.16.21-.37.21-.61,0-.23-.07-.43-.2-.58-.13-.15-.31-.22-.52-.22s-.39.07-.53.21Z" style="fill: #622b88;"/>
      <path d="M654.84,246.71c-.11-.43-.31-.77-.6-1.01-.29-.25-.67-.37-1.16-.37-.36,0-.68.07-.95.22-.27.15-.5.34-.67.59-.17.25-.3.53-.39.85-.09.32-.13.65-.13.99s.04.67.13.99.21.6.39.85c.17.25.4.45.67.59.27.15.59.22.95.22.53,0,.94-.17,1.25-.51.31-.34.49-.78.54-1.31h1.2c-.03.42-.12.8-.27,1.14-.15.34-.36.64-.63.89-.26.25-.57.44-.93.58-.36.14-.75.2-1.17.2-.51,0-.98-.09-1.4-.28-.42-.19-.78-.45-1.07-.78-.29-.33-.52-.72-.67-1.16-.15-.44-.23-.91-.23-1.41s.08-.97.23-1.41c.15-.44.38-.83.67-1.16.29-.33.65-.6,1.07-.78.42-.19.89-.28,1.4-.28.81,0,1.49.22,2.03.63.28.21.5.46.66.75.16.29.26.62.3.99h-1.23Z" style="fill: #622b88;"/>
      <path d="M657.38,250.86c-.46-.49-.68-1.13-.68-1.93s.23-1.42.68-1.92c.46-.49,1.08-.74,1.89-.74s1.43.25,1.89.74c.46.49.68,1.13.68,1.92s-.23,1.43-.68,1.93c-.46.49-1.08.74-1.89.74s-1.43-.25-1.89-.74ZM659.91,250.56c.18-.1.33-.24.45-.4.12-.17.21-.36.27-.57.06-.21.09-.43.09-.66s-.03-.45-.09-.65c-.06-.21-.15-.4-.27-.57-.12-.17-.27-.31-.45-.4-.18-.1-.4-.15-.64-.15s-.46.05-.64.15c-.18.1-.33.23-.45.4-.12.17-.21.36-.27.57-.06.21-.09.43-.09.65s.03.45.09.66c.06.21.15.4.27.57.12.17.27.3.46.4.19.1.4.15.64.15s.46-.05.64-.15Z" style="fill: #622b88;"/>
      <path d="M667.37,251.19c0,.75-.22,1.31-.64,1.69-.43.38-1.05.57-1.86.57-.27,0-.53-.03-.79-.08-.26-.06-.49-.14-.71-.27-.22-.12-.39-.29-.53-.49-.14-.2-.22-.45-.25-.73h1.12c.07.29.2.49.41.59.21.1.48.15.81.15.45,0,.78-.11.99-.33.21-.22.32-.54.32-.96v-.77h-.02c-.16.28-.37.5-.64.65-.27.16-.57.23-.88.23-.39,0-.73-.07-1.02-.2-.29-.14-.53-.33-.72-.57-.19-.24-.32-.52-.41-.84-.09-.32-.13-.66-.13-1.03,0-.34.05-.67.16-.97.1-.3.26-.57.46-.8.2-.23.44-.42.73-.55.29-.13.61-.2.96-.2.33,0,.64.07.9.21s.47.35.61.62h.02v-.69h1.12v4.78ZM665.5,250.43c.18-.1.32-.23.43-.4.11-.17.19-.36.24-.57.05-.21.08-.42.08-.64,0-.47-.11-.87-.34-1.19-.23-.32-.57-.48-1.03-.48-.24,0-.44.05-.62.15-.17.1-.31.24-.42.4-.11.17-.18.36-.23.56-.05.2-.07.42-.07.64s.03.42.08.62c.05.2.13.37.24.52.24.35.58.53,1.02.53.24,0,.44-.05.62-.15Z" style="fill: #622b88;"/>
      <path d="M668.4,246.42h1.06v.74l.02.02c.17-.28.39-.5.67-.66.28-.16.58-.24.92-.24.56,0,1.01.15,1.32.44.32.3.48.72.48,1.27v3.46h-1.12v-3.17c0-.39-.09-.68-.25-.86-.16-.18-.41-.27-.74-.27-.37,0-.66.13-.89.38-.23.25-.34.57-.34.95v2.97h-1.12v-5.04Z" style="fill: #622b88;"/>
      <path d="M673.97,244.5h1.12v1.05h-1.12v-1.05ZM673.97,246.42h1.12v5.04h-1.12v-5.04Z" style="fill: #622b88;"/>
      <path d="M675.69,246.42h.85v-1.51h1.12v1.51h1.01v.83h-1.01v2.69c0,.26.03.44.1.54.07.1.21.15.44.15.21,0,.37-.01.47-.04v.86c-.06,0-.14.02-.25.03-.21.02-.37.03-.48.03-.55,0-.92-.1-1.11-.3-.19-.2-.29-.53-.3-.98v-2.97h-.85v-.83Z" style="fill: #622b88;"/>
      <path d="M679.41,244.5h1.12v1.05h-1.12v-1.05ZM679.41,246.42h1.12v5.04h-1.12v-5.04Z" style="fill: #622b88;"/>
      <path d="M681.14,246.42h1.22l1.29,3.87h.02l1.24-3.87h1.16l-1.82,5.04h-1.26l-1.85-5.04Z" style="fill: #622b88;"/>
      <path d="M687.52,249.22c0,.42.12.78.35,1.06.24.29.57.43,1.01.43.63,0,1.04-.28,1.24-.84h1.06c-.12.54-.39.96-.81,1.26-.42.3-.92.45-1.49.45-.78,0-1.39-.24-1.83-.73-.44-.49-.66-1.13-.66-1.92,0-.36.06-.7.17-1.02.11-.32.28-.61.5-.85.22-.25.48-.44.78-.58.31-.14.64-.21,1.01-.21s.69.07.99.2c.3.14.56.33.77.57.22.24.38.52.49.83.11.31.17.64.17.97,0,.12,0,.25-.02.37h-3.74ZM690.14,248.49c-.02-.37-.15-.69-.38-.95-.23-.26-.53-.39-.9-.39s-.7.13-.95.38c-.25.25-.38.57-.39.96h2.62Z" style="fill: #622b88;"/>
      <path d="M694.93,249.14c0,.51.16.88.49,1.13.33.24.76.37,1.29.37s.88-.1,1.12-.31c.24-.2.36-.45.36-.75,0-.25-.05-.44-.16-.57-.11-.13-.25-.23-.42-.29-.21-.08-.6-.19-1.16-.33-.43-.11-.75-.19-.94-.24-.56-.15-.96-.38-1.2-.69-.24-.31-.36-.67-.36-1.07,0-.34.07-.64.21-.89.14-.26.33-.47.58-.64.25-.17.52-.3.83-.38.31-.08.62-.13.95-.13.37,0,.72.05,1.05.14.32.09.61.24.86.43.25.19.44.43.58.71.14.28.21.59.21.95h-1.23c-.03-.43-.17-.74-.44-.94-.27-.19-.63-.29-1.08-.29-.16,0-.31.01-.46.04-.15.03-.29.08-.41.15-.13.07-.23.17-.31.28-.08.12-.11.26-.11.43,0,.23.07.42.22.57.15.15.35.25.62.33l.28.07c.3.08.57.15.83.22.26.07.46.12.61.16.15.04.26.07.32.09.44.13.78.36,1.01.7.24.33.35.69.35,1.08s-.08.71-.23.98c-.15.28-.36.51-.63.68-.26.18-.56.31-.9.39-.33.08-.68.13-1.04.13-.41,0-.79-.05-1.14-.15-.35-.1-.66-.25-.93-.45-.27-.2-.47-.46-.63-.78-.15-.32-.23-.69-.24-1.1h1.23Z" style="fill: #622b88;"/>
      <path d="M703.68,248.1c-.05-.3-.17-.53-.38-.7-.21-.17-.47-.25-.78-.25-.16,0-.33.03-.49.08-.16.05-.31.14-.45.28-.14.13-.25.32-.33.57-.09.24-.13.55-.13.91,0,.22.03.43.08.63.05.2.13.38.24.55.11.17.25.3.42.39.17.1.37.15.61.15.33,0,.6-.1.81-.31.21-.2.35-.49.4-.84h1.12c-.11.66-.36,1.16-.76,1.51-.4.35-.93.52-1.58.52-.77,0-1.38-.24-1.82-.73-.44-.48-.65-1.11-.65-1.88s.22-1.44.65-1.95,1.05-.76,1.86-.76c.62,0,1.15.16,1.58.47.43.31.67.76.72,1.35h-1.12Z" style="fill: #622b88;"/>
      <path d="M705.64,244.5h1.12v1.05h-1.12v-1.05ZM705.64,246.42h1.12v5.04h-1.12v-5.04Z" style="fill: #622b88;"/>
      <path d="M708.75,249.22c0,.42.12.78.35,1.06.24.29.57.43,1.01.43.63,0,1.04-.28,1.24-.84h1.06c-.12.54-.39.96-.81,1.26-.42.3-.92.45-1.49.45-.78,0-1.39-.24-1.83-.73-.44-.49-.66-1.13-.66-1.92,0-.36.06-.7.17-1.02.11-.32.28-.61.5-.85.22-.25.48-.44.78-.58s.64-.21,1.01-.21.69.07.99.2c.3.14.56.33.77.57.22.24.38.52.49.83.11.31.17.64.17.97,0,.12,0,.25-.02.37h-3.74ZM711.37,248.49c-.02-.37-.15-.69-.38-.95-.23-.26-.53-.39-.9-.39s-.7.13-.95.38c-.25.25-.38.57-.39.96h2.62Z" style="fill: #622b88;"/>
      <path d="M713.24,246.42h1.06v.74l.02.02c.17-.28.39-.5.67-.66.28-.16.58-.24.92-.24.56,0,1.01.15,1.32.44.32.3.48.72.48,1.27v3.46h-1.12v-3.17c0-.39-.09-.68-.25-.86-.16-.18-.41-.27-.74-.27-.37,0-.66.13-.89.38-.23.25-.34.57-.34.95v2.97h-1.12v-5.04Z" style="fill: #622b88;"/>
      <path d="M722.22,248.1c-.05-.3-.17-.53-.38-.7-.21-.17-.47-.25-.78-.25-.16,0-.33.03-.49.08-.16.05-.31.14-.45.28-.14.13-.25.32-.33.57-.09.24-.13.55-.13.91,0,.22.03.43.08.63.05.2.13.38.24.55.11.17.25.3.42.39.17.1.37.15.61.15.33,0,.6-.1.81-.31.21-.2.35-.49.4-.84h1.12c-.11.66-.36,1.16-.76,1.51-.4.35-.93.52-1.58.52-.77,0-1.38-.24-1.82-.73-.44-.48-.65-1.11-.65-1.88s.22-1.44.65-1.95c.43-.51,1.05-.76,1.86-.76.62,0,1.15.16,1.58.47.43.31.67.76.72,1.35h-1.12Z" style="fill: #622b88;"/>
      <path d="M725.02,249.22c0,.42.12.78.35,1.06.24.29.57.43,1.01.43.63,0,1.04-.28,1.24-.84h1.06c-.12.54-.39.96-.81,1.26-.42.3-.92.45-1.49.45-.78,0-1.39-.24-1.83-.73-.44-.49-.66-1.13-.66-1.92,0-.36.06-.7.17-1.02.11-.32.28-.61.5-.85.22-.25.48-.44.78-.58s.64-.21,1.01-.21.69.07.99.2c.3.14.56.33.77.57.22.24.38.52.49.83.11.31.17.64.17.97,0,.12,0,.25-.02.37h-3.74ZM727.64,248.49c-.02-.37-.15-.69-.38-.95-.23-.26-.53-.39-.9-.39s-.7.13-.95.38c-.25.25-.38.57-.39.96h2.62Z" style="fill: #622b88;"/>
      <path d="M730.36,249.84c.03.31.14.53.35.67.21.14.48.21.8.21.12,0,.25,0,.37-.02.12-.02.25-.05.36-.1.12-.05.21-.12.29-.2.07-.09.11-.2.11-.34-.01-.22-.12-.38-.33-.48-.21-.1-.54-.19-.97-.28-.18-.04-.3-.06-.35-.08-.24-.05-.46-.11-.64-.18-.18-.06-.35-.15-.5-.26-.15-.11-.27-.25-.36-.42-.09-.17-.13-.38-.13-.63,0-.26.06-.48.19-.67.13-.19.3-.34.51-.45.21-.11.44-.19.68-.24.25-.05.49-.07.74-.07.57,0,1.04.12,1.41.35.2.13.36.29.48.49.12.2.2.43.24.71h-1.17c-.05-.25-.16-.42-.34-.52-.18-.1-.41-.15-.69-.15-.09,0-.19,0-.3.02-.11.01-.21.04-.3.08-.1.04-.17.09-.24.16-.06.07-.09.15-.09.26,0,.21.11.36.32.45.21.09.54.19.98.28.2.05.32.07.35.08.24.06.46.12.64.19.18.07.35.15.51.26.15.11.28.25.36.41.09.17.13.37.13.61,0,.29-.07.53-.2.75-.13.21-.31.38-.53.51-.22.13-.46.23-.73.29-.27.06-.54.09-.82.09-.67,0-1.21-.15-1.62-.45-.41-.3-.62-.73-.63-1.31h1.12Z" style="fill: #622b88;"/>
    </g>
  </g>
  <path d="M151.36,64.65l4.99-14.16h3.14l4.99,14.16h-2.72l-1.17-3.5h-5.33l-1.17,3.5h-2.72ZM159.9,59.1l-1.92-5.72h-.11l-1.92,5.72h3.95Z" style="fill: #231f20;"/>
  <path d="M166.17,64.65v-14.16h4.88c4.22,0,6.77,2.65,6.77,7.06s-2.54,7.09-6.86,7.09h-4.79ZM170.84,62.45c2.96,0,4.46-1.63,4.46-4.89s-1.5-4.86-4.38-4.86h-2.21v9.75h2.13Z" style="fill: #231f20;"/>
  <path d="M180.08,64.65v-14.16h4.88c4.22,0,6.77,2.65,6.77,7.06s-2.54,7.09-6.86,7.09h-4.79ZM184.75,62.45c2.96,0,4.46-1.63,4.46-4.89s-1.5-4.86-4.38-4.86h-2.21v9.75h2.13Z" style="fill: #231f20;"/>
  <path d="M193.99,50.49h5.29c3.26,0,4.99,1.83,4.99,4.53,0,1.92-.88,3.35-2.55,4.02l3.07,5.61h-2.85l-2.78-5.19h-2.64v5.19h-2.54v-14.16ZM198.91,57.34c1.91,0,2.76-.82,2.76-2.32s-.86-2.4-2.78-2.4h-2.37v4.72h2.38Z" style="fill: #231f20;"/>
  <path d="M206.47,50.49h9.19v2.14h-6.66v3.86h6.17v2.14h-6.17v3.88h6.7v2.14h-9.24v-14.16Z" style="fill: #231f20;"/>
  <path d="M223.12,52.46c-1.61,0-2.57.78-2.57,1.85-.01,1.18,1.24,1.68,2.41,1.96l1.33.33c2.12.5,4.15,1.61,4.15,4.07s-1.97,4.19-5.36,4.19-5.38-1.58-5.49-4.38h2.5c.11,1.48,1.36,2.21,2.97,2.21s2.83-.82,2.84-2.03c0-1.1-1.03-1.58-2.55-1.97l-1.61-.42c-2.33-.59-3.77-1.77-3.77-3.8-.01-2.5,2.21-4.17,5.18-4.17s5.05,1.69,5.09,4.08h-2.45c-.12-1.22-1.14-1.92-2.67-1.92Z" style="fill: #231f20;"/>
  <path d="M235.57,52.46c-1.61,0-2.57.78-2.57,1.85-.01,1.18,1.24,1.68,2.41,1.96l1.33.33c2.12.5,4.15,1.61,4.15,4.07s-1.97,4.19-5.36,4.19-5.38-1.58-5.49-4.38h2.5c.11,1.48,1.36,2.21,2.97,2.21s2.83-.82,2.84-2.03c0-1.1-1.03-1.58-2.55-1.97l-1.61-.42c-2.33-.59-3.77-1.77-3.77-3.8-.01-2.5,2.21-4.17,5.18-4.17s5.05,1.69,5.09,4.08h-2.45c-.12-1.22-1.14-1.92-2.67-1.92Z" style="fill: #231f20;"/>
  <path d="M152.12,87.81h6.6v1.75h-4.42v7.87c1.93-.01,3.5-.11,5.3-.46l.17,1.78c-2.14.43-4,.49-6.45.5h-1.2v-11.45ZM166.77,103.38h-2.06v-8.99h-1.99v8.12h-2v-16.44h2v6.57h1.99v-6.91h2.06v17.65Z" style="fill: #231f20;"/>
  <path d="M173.14,89.24v-.48h-3.68v-1.75h9.55v1.75h-3.66v.49c0,2.12,1.42,4.32,4.15,5.23l-1.08,1.72c-1.98-.66-3.37-2.02-4.14-3.68-.78,1.85-2.25,3.35-4.34,4.06l-1.12-1.76c2.81-.92,4.32-3.23,4.32-5.58ZM172.07,97.51h2.17v3.77h9.86v1.76h-12.03v-5.54ZM183.66,98.65h-2.17v-6.48h-3.13v-1.76h3.13v-4.68h2.17v12.91Z" style="fill: #231f20;"/>
  <path d="M189.41,93.89v-3.25h2.16v3.19c1.83-.07,3.7-.19,5.43-.4l.12,1.53c-3.68.63-7.77.73-10.95.73l-.19-1.77c1.05,0,2.22,0,3.44-.03ZM196.03,87.82c-.01,1.14-.01,2.72-.44,4.69l-2.13-.17c.33-1.59.39-2.82.4-3.84h-6.84v-1.76h9.01v1.08ZM194.33,96.79c3.74,0,6.05,1.23,6.05,3.24s-2.32,3.3-6.05,3.3-6.06-1.21-6.06-3.3,2.32-3.24,6.06-3.24ZM194.33,101.63c2.43,0,3.82-.52,3.83-1.6,0-1-1.4-1.56-3.83-1.56s-3.86.57-3.84,1.56c-.01,1.08,1.41,1.6,3.84,1.6ZM198.03,85.72h2.21v4.51h2.3v1.81h-2.3v4.53h-2.21v-10.85Z" style="fill: #231f20;"/>
  <path d="M208.35,86.69c1.47,0,2.74.55,3.57,1.48h4.15v-2.45h2.17v10.42h-2.17v-2.33h-4.15c-.84.94-2.11,1.5-3.57,1.49-2.66,0-4.67-1.79-4.66-4.33-.01-2.5,2-4.3,4.66-4.29ZM208.35,93.47c1.45,0,2.56-.97,2.56-2.5s-1.11-2.45-2.56-2.45-2.59.97-2.59,2.45,1.08,2.49,2.59,2.5ZM218.25,103.38h-2.17v-4.65h-9.88v-1.72h12.05v6.37ZM216.08,92.06v-2.13h-3.22c.08.33.12.68.12,1.04s-.05.74-.13,1.09h3.23Z" style="fill: #231f20;"/>
  <path d="M231.98,97.68l-1.29,1.74c-2.03-.94-3.52-2.81-4.34-5.12-.8,2.49-2.32,4.53-4.46,5.53l-1.33-1.81c2.93-1.27,4.65-4.65,4.66-8.05v-2.83h2.2v2.83c-.01,3.24,1.69,6.48,4.56,7.71ZM233.25,85.72h2.19v17.7h-2.19v-17.7Z" style="fill: #231f20;"/>
  <path d="M258.92,97.39h-3.94v5.99h-2.2v-5.99h-3.93v5.99h-2.23v-5.99h-3.86v-1.76h16.15v1.76ZM250.8,86.35c3.77,0,6.37,1.54,6.37,3.95s-2.6,3.86-6.37,3.86c-3.76,0-6.35-1.49-6.34-3.86,0-2.41,2.58-3.95,6.34-3.95ZM250.8,92.44c2.51,0,4.12-.79,4.13-2.14,0-1.39-1.62-2.2-4.13-2.2s-4.11.81-4.1,2.2c-.01,1.35,1.6,2.14,4.1,2.14Z" style="fill: #231f20;"/>
  <path d="M270.7,93.74l-1.17,1.7c-1.92-.68-3.28-1.97-4.03-3.65-.77,1.93-2.25,3.44-4.38,4.19l-1.16-1.75c2.92-.96,4.39-3.32,4.4-5.88v-1.67h2.18v1.57c-.01,2.42,1.4,4.61,4.15,5.49ZM268.9,96.58c3.74,0,6.03,1.25,6.03,3.4s-2.29,3.39-6.03,3.38c-3.73,0-6.02-1.22-6.01-3.38,0-2.15,2.28-3.4,6.01-3.4ZM268.9,101.66c2.47,0,3.86-.59,3.87-1.67,0-1.11-1.4-1.71-3.87-1.71s-3.86.59-3.85,1.71c-.01,1.08,1.39,1.68,3.85,1.67ZM269.19,89.14h3.52v-3.42h2.17v10.38h-2.17v-5.18h-3.52v-1.78Z" style="fill: #231f20;"/>
  <path d="M291.5,88.37c0,1.65,0,3.46-.47,5.96h2.44v1.77h-7.02v7.31h-2.19v-7.31h-6.89v-1.77h11.46c.48-2.41.5-4.2.5-5.79h-10.06v-1.75h12.22v1.58Z" style="fill: #231f20;"/>
  <path d="M299.96,87.81h6.6v1.75h-4.42v7.87c1.93-.01,3.5-.11,5.3-.46l.17,1.78c-2.14.43-4,.49-6.45.5h-1.2v-11.45ZM314.62,103.38h-2.06v-8.99h-1.99v8.12h-2v-16.44h2v6.57h1.99v-6.91h2.06v17.65Z" style="fill: #231f20;"/>
  <path d="M327.21,89.13h-10.49v-1.72h4.17v-1.77h2.16v1.77h4.15v1.72ZM321.98,89.82c2.54,0,4.3,1.3,4.31,3.24,0,1.94-1.76,3.23-4.31,3.23s-4.35-1.29-4.34-3.23c0-1.94,1.78-3.23,4.34-3.24ZM318.87,97.61h11.78v5.77h-2.18v-4.02h-9.59v-1.75ZM321.98,94.6c1.33,0,2.23-.55,2.25-1.55-.01-1-.91-1.58-2.25-1.59-1.35,0-2.25.59-2.23,1.59-.01,1,.88,1.55,2.23,1.55ZM328.47,85.72h2.18v4.69h2.47v1.78h-2.47v4.59h-2.18v-11.06Z" style="fill: #231f20;"/>
  <path d="M350.16,101.34h-16.15v-1.8h6.96v-2.88h-5.05v-5.78h10.17v-2.2h-10.2v-1.75h12.35v5.67h-10.15v2.28h10.56v1.78h-5.53v2.88h7.04v1.8Z" style="fill: #231f20;"/>
  <path d="M356.63,99.8l5-4.82c1.43-1.43,2.18-2.27,2.18-3.46,0-1.33-1.05-2.16-2.44-2.16s-2.39.91-2.38,2.35h-2.42c-.01-2.68,2-4.42,4.84-4.42s4.83,1.73,4.84,4.1c0,1.6-.77,2.9-3.56,5.52l-2.51,2.5v.1h6.28v2.13h-9.82v-1.85Z" style="fill: #231f20;"/>
  <path d="M379.23,94.14c0,4.89-2.2,7.71-5.67,7.71-2.74,0-4.62-1.7-4.93-4.04h2.52c.26,1.11,1.13,1.83,2.42,1.83,2.05,0,3.19-1.81,3.21-4.85h-.15c-.71,1.22-2.07,1.96-3.62,1.96-2.54,0-4.49-1.92-4.5-4.6,0-2.77,2.08-4.87,5.22-4.85,2.76.01,5.52,1.67,5.52,6.84ZM373.69,94.81c1.57,0,2.79-1.27,2.78-2.73,0-1.45-1.16-2.72-2.74-2.72s-2.77,1.22-2.76,2.73c0,1.52,1.13,2.72,2.72,2.72Z" style="fill: #231f20;"/>
  <path d="M387.09,101.65h-2.56v-11.67h-.08l-3.31,2.12v-2.33l3.51-2.27h2.44v14.16Z" style="fill: #231f20;"/>
  <path d="M394.69,87.69h4.17v-1.97h2.16v1.97h4.15v1.73h-10.49v-1.73ZM399.94,90.16c2.54,0,4.3,1.35,4.31,3.38,0,2.01-1.77,3.34-4.31,3.33-2.58,0-4.35-1.32-4.34-3.33,0-2.03,1.76-3.38,4.34-3.38ZM397.3,97.9h2.16v3.38h9.85v1.76h-12.01v-5.14ZM399.94,95.21c1.33,0,2.23-.61,2.25-1.67-.01-1.08-.91-1.71-2.25-1.71s-2.25.63-2.23,1.71c-.01,1.06.88,1.67,2.23,1.67ZM408.62,91.29h2.47v1.79h-2.47v5.86h-2.18v-13.2h2.18v5.55Z" style="fill: #231f20;"/>
  <path d="M426.15,87.87c0,1.31,0,2.83-.39,4.81h2.36v1.75h-7.02v2.77h5.09v6.18h-2.18v-4.45h-10.4v-1.73h5.32v-2.77h-6.95v-1.75h11.6c.37-1.81.4-3.19.41-4.42h-10.01v-1.74h12.18v1.35Z" style="fill: #231f20;"/>
  <path d="M432.53,97.88v-5.27h2.14v5.21c1.8-.08,3.65-.2,5.34-.42l.12,1.62c-3.65.6-7.7.68-10.82.66l-.21-1.76c1.05,0,2.21-.01,3.43-.04ZM439.14,88.81c-.01,1.58-.01,3.79-.5,6.84l-2.14-.17c.42-2.69.46-4.67.48-6.18h-6.93v-1.75h9.1v1.26ZM440.93,85.72h2.19v7.19h2.56v1.84h-2.56v8.63h-2.19v-17.65Z" style="fill: #231f20;"/>
  <path d="M457.06,89.13h-10.49v-1.72h4.17v-1.77h2.16v1.77h4.15v1.72ZM451.82,89.82c2.54,0,4.3,1.3,4.31,3.24,0,1.94-1.76,3.23-4.31,3.23s-4.35-1.29-4.34-3.23c0-1.94,1.78-3.23,4.34-3.24ZM448.72,97.61h11.78v5.77h-2.18v-4.02h-9.59v-1.75ZM451.82,94.6c1.33,0,2.23-.55,2.25-1.55-.01-1-.91-1.58-2.25-1.59-1.35,0-2.25.59-2.23,1.59-.01,1,.88,1.55,2.23,1.55ZM458.31,85.72h2.18v4.69h2.47v1.78h-2.47v4.59h-2.18v-11.06Z" style="fill: #231f20;"/>
  <path d="M471.12,89.32h-6.26v-1.72h8.47c0,5.26-2.05,9.73-8.23,12.66l-1.14-1.74c4.62-2.2,6.77-5.18,7.15-9.2ZM478.6,103.38h-2.19v-17.65h2.19v17.65Z" style="fill: #231f20;"/>
  <path d="M481.14,92.82h16.1v1.72h-6.98v1.36h4.98v4.38h-10.05v1.3h10.53v1.66h-12.66v-4.51h10.04v-1.16h-10.06v-1.66h5.04v-1.36h-6.93v-1.72ZM496.41,90.3l-.73,1.63c-2.99-.35-5.36-1.53-6.5-3.24-1.15,1.71-3.52,2.9-6.48,3.24l-.74-1.63c3.7-.41,6.1-2.13,6.11-4.01v-.48h2.24v.48c0,1.88,2.41,3.6,6.1,4.01Z" style="fill: #231f20;"/>
  <path d="M509.74,93.15l.13,1.56c-1.45.24-2.97.4-4.46.51v3.39h-2.18v-3.28c-1.65.07-3.22.08-4.61.08l-.26-1.74c3.26-.02,7.64-.06,11.38-.53ZM504.12,86.38c2.58,0,4.39,1.27,4.4,3.13-.01,1.89-1.83,3.1-4.4,3.1s-4.42-1.2-4.42-3.1,1.8-3.14,4.42-3.13ZM500.7,97.81h2.18v3.47h10.78v1.76h-12.96v-5.23ZM504.12,91.03c1.35,0,2.32-.55,2.33-1.51-.01-.96-.97-1.54-2.33-1.53-1.41,0-2.36.57-2.35,1.53-.01.96.94,1.51,2.35,1.51ZM513.25,99.11h-2.18v-1.55h-3.46v-1.51h3.46v-10.31h2.18v13.37Z" style="fill: #231f20;"/>
  <path d="M519.7,87.09h2.34c-1.4,1.83-2.49,5.51-2.49,8.79s1.09,6.96,2.49,8.79h-2.34c-1.82-2.46-2.74-5.33-2.74-8.79s.92-6.33,2.74-8.79Z" style="fill: #231f20;"/>
  <path d="M523.93,87.49h9.19v2.14h-6.66v3.86h6.17v2.14h-6.17v3.88h6.7v2.14h-9.24v-14.16Z" style="fill: #231f20;"/>
  <path d="M541.17,101.65h-2.56v-11.67h-.08l-3.31,2.12v-2.33l3.51-2.27h2.44v14.16Z" style="fill: #231f20;"/>
  <path d="M550.34,101.65h-2.56v-11.67h-.08l-3.31,2.12v-2.33l3.51-2.27h2.44v14.16Z" style="fill: #231f20;"/>
  <path d="M569.31,95.91h-16.13v-1.73h7v-1.69h-5.02v-5.97h12.19v1.71h-10.03v2.55h10.13v1.71h-5.14v1.69h7v1.73ZM561.2,96.93c3.82,0,6.12,1.17,6.12,3.23,0,2.05-2.3,3.22-6.12,3.23-3.84,0-6.15-1.18-6.15-3.23s2.32-3.23,6.15-3.23ZM561.2,101.71c2.54.01,3.94-.52,3.95-1.54-.01-1.02-1.42-1.56-3.95-1.56s-3.95.55-3.94,1.56c-.01,1.02,1.38,1.56,3.94,1.54Z" style="fill: #231f20;"/>
  <path d="M575.85,97.81h2.47c.09,1.15,1.17,1.98,2.51,1.98,1.59,0,2.72-1.14,2.72-2.72s-1.17-2.76-2.8-2.77c-1.1,0-1.9.38-2.35,1.21h-2.35l.84-8.01h8.36v2.13h-6.26l-.43,3.76h.12c.55-.62,1.58-1.07,2.75-1.07,2.63,0,4.58,1.96,4.58,4.69s-2.13,4.85-5.19,4.85c-2.82,0-4.91-1.69-4.98-4.04Z" style="fill: #231f20;"/>
  <path d="M603.66,96.27h-16.1v-1.76h16.1v1.76ZM594.35,89.08h-5.2v-1.72h5.37v-1.61h2.16v1.61h5.41v1.72h-5.25c.28,1.45,2.36,2.67,6.04,2.92l-.66,1.66c-3.17-.26-5.52-1.24-6.62-2.77-1.11,1.54-3.46,2.52-6.6,2.77l-.67-1.66c3.66-.26,5.74-1.47,6.03-2.92ZM595.59,97.41c3.86,0,6.12,1.06,6.12,2.98,0,1.93-2.26,2.98-6.12,2.97-3.86,0-6.15-1.04-6.15-2.97s2.29-2.98,6.15-2.98ZM595.59,101.74c2.56,0,3.94-.44,3.95-1.35-.01-.91-1.4-1.36-3.95-1.36s-3.95.46-3.94,1.36c-.01.91,1.35,1.35,3.94,1.35Z" style="fill: #231f20;"/>
  <path d="M607.19,104.66h-2.34c1.4-1.83,2.49-5.51,2.49-8.79s-1.09-6.96-2.49-8.79h2.34c1.82,2.46,2.74,5.33,2.74,8.79s-.92,6.32-2.74,8.79Z" style="fill: #231f20;"/>
  <g>
    <path d="M154.29,163.34c1.8-.02,3.48-.14,5.43-.55l.26,1.58c-2.28.48-4.22.58-6.39.57h-1.15v-11.34h1.86v9.73ZM157.34,157.57h3.83v-5.38h1.76v16.27h-1.76v-9.37h-3.83v-1.51ZM164.93,151.79h1.76v17.52h-1.76v-17.52Z" style="fill: #231f20;"/>
    <path d="M169.89,153.25h1.85v4.5h4.73v-4.5h1.83v11.9h-8.41v-11.9ZM176.47,163.62v-4.4h-4.73v4.4h4.73ZM183.43,169.34h-1.87v-17.55h1.87v17.55Z" style="fill: #231f20;"/>
    <path d="M191.96,155.5h-4.98v-1.53h6.84c0,1.71-.25,3.35-.78,4.87h2.79v-6.59h1.76v16.22h-1.76v-8.14h-3.43c-1.04,2.03-2.71,3.81-5.17,5.25l-1.07-1.32c3.72-2.21,5.5-5.16,5.81-8.75ZM201.27,169.31h-1.76v-17.52h1.76v17.52Z" style="fill: #231f20;"/>
    <path d="M208.64,153.11c2.61,0,4.52,2.39,4.52,6.14s-1.91,6.16-4.52,6.16-4.53-2.38-4.53-6.16,1.89-6.14,4.53-6.14ZM208.64,163.75c1.62,0,2.72-1.71,2.72-4.49s-1.11-4.47-2.72-4.49c-1.62.01-2.74,1.73-2.74,4.49s1.12,4.49,2.74,4.49ZM218.02,169.34h-1.87v-17.55h1.87v17.55Z" style="fill: #231f20;"/>
    <path d="M231.17,160.9l-1.03,1.44c-1.9-.77-3.31-2.29-4.06-4.19-.75,2.04-2.24,3.66-4.28,4.47l-1-1.47c2.7-1.01,4.33-3.5,4.34-6.19v-2.18h1.85v2.18c0,2.52,1.57,4.93,4.18,5.93ZM223.96,163.54h1.87v3.89h9.96v1.52h-11.83v-5.41ZM230.15,157.83h3.4v-2.02h-3.4v-1.51h3.4v-2.49h1.85v13.05h-1.85v-5.52h-3.4v-1.51Z" style="fill: #231f20;"/>
    <path d="M242.06,153.2c2.13,0,3.57,2.02,3.79,5.31h1.98v-6.37h1.77v16.31h-1.77v-8.43h-1.97c-.17,3.42-1.63,5.54-3.8,5.53-2.28,0-3.77-2.38-3.77-6.19s1.49-6.16,3.77-6.16ZM242.06,163.77c1.29.01,2.09-1.62,2.09-4.42s-.8-4.42-2.09-4.42-2.05,1.63-2.04,4.42c-.01,2.79.78,4.43,2.04,4.42ZM253.16,169.31h-1.78v-17.52h1.78v17.52Z" style="fill: #231f20;"/>
    <path d="M261.93,153.49h1.66l-1.04,5.41h-2.18l1.57-5.41Z" style="fill: #231f20;"/>
    <path d="M266.09,166.48l-1.02-1.4c3.17-1.56,5.06-3.44,6.1-5.66l-5.73.54-.26-1.6,6.55-.43c.27-.91.42-1.85.49-2.85h-6.14v-1.51h8c0,5.18-1.6,9.76-7.98,12.91ZM276.76,151.79h1.86v7h2.72v1.53h-2.72v8.97h-1.86v-17.5Z" style="fill: #231f20;"/>
    <path d="M287.4,153.11c2.61,0,4.52,2.39,4.52,6.14s-1.91,6.16-4.52,6.16-4.53-2.38-4.53-6.16,1.89-6.14,4.53-6.14ZM287.4,163.75c1.62,0,2.72-1.71,2.72-4.49s-1.11-4.47-2.72-4.49c-1.62.01-2.74,1.73-2.74,4.49s1.12,4.49,2.74,4.49ZM296.78,169.34h-1.87v-17.55h1.87v17.55Z" style="fill: #231f20;"/>
    <path d="M299.56,165.47h16.03v1.54h-16.03v-1.54ZM314.85,160.43l-.84,1.55c-2.81-.61-5.38-2.44-6.52-4.9-1.15,2.45-3.72,4.29-6.53,4.9l-.83-1.55c3.33-.62,6.35-3.3,6.37-6.15v-1.32h1.96v1.32c0,2.85,3.03,5.55,6.39,6.15Z" style="fill: #231f20;"/>
    <path d="M316.85,165.58h16.03v1.53h-16.03v-1.53ZM331.07,162.61h-12.2v-9.37h12.03v1.52h-10.15v2.35h9.77v1.48h-9.77v2.53h10.33v1.49Z" style="fill: #231f20;"/>
    <path d="M349.43,160.23l-.87,1.47c-2-.59-3.5-1.83-4.28-3.42-.77,1.79-2.29,3.19-4.36,3.86l-.92-1.46c2.69-.8,4.33-2.86,4.33-5.13v-.22h-3.81v-1.49h3.81v-2.12h1.87v2.12h3.77v1.49h-3.8v.22c0,2.03,1.58,3.91,4.26,4.67ZM347.13,162.87c3.63,0,5.82,1.16,5.82,3.21s-2.19,3.19-5.82,3.19-5.88-1.16-5.88-3.19,2.22-3.21,5.88-3.21ZM347.13,167.84c2.52,0,4-.63,4-1.76s-1.48-1.76-4-1.76-4.03.61-4.02,1.76c-.01,1.13,1.47,1.76,4.02,1.76ZM350.93,151.79h1.86v4.42h2.54v1.52h-2.54v4.75h-1.86v-10.69Z" style="fill: #231f20;"/>
    <path d="M367.85,163.45l.14,1.36c-3.97.75-8.23.77-11.36.77l-.23-1.55c3.19,0,7.61-.03,11.44-.58ZM366.8,157.21c-.01,2.47-2,4.17-4.77,4.17s-4.78-1.71-4.77-4.17c-.01-2.46,2.01-4.17,4.77-4.17s4.76,1.71,4.77,4.17ZM362.03,159.78c1.7,0,2.95-1.02,2.96-2.56,0-1.54-1.26-2.56-2.96-2.56s-2.95,1.02-2.94,2.56c-.01,1.55,1.24,2.56,2.94,2.56ZM368.95,151.79h1.85v17.55h-1.85v-17.55Z" style="fill: #231f20;"/>
    <path d="M384.06,155.05h-10.42v-1.48h4.3v-1.86h1.85v1.86h4.28v1.48ZM378.86,155.85c2.52.01,4.24,1.26,4.24,3.19,0,1.91-1.72,3.17-4.24,3.17s-4.27-1.26-4.27-3.17c0-1.92,1.73-3.17,4.27-3.19ZM375.8,163.64h11.58v5.67h-1.86v-4.16h-9.72v-1.51ZM378.86,160.77c1.48,0,2.47-.65,2.49-1.73-.01-1.09-1.01-1.76-2.49-1.77-1.49.01-2.49.68-2.47,1.77-.01,1.08.98,1.73,2.47,1.73ZM385.52,151.79h1.86v4.76h2.54v1.53h-2.54v4.67h-1.86v-10.96Z" style="fill: #231f20;"/>
    <path d="M390.91,159.67h15.97v1.52h-15.97v-1.52ZM397.94,152.73v-.75h1.91v.75c0,2.03,2.79,3.97,6.15,4.4l-.67,1.46c-2.83-.4-5.31-1.74-6.43-3.61-1.13,1.87-3.62,3.21-6.44,3.61l-.69-1.46c3.39-.45,6.17-2.31,6.17-4.4ZM394.72,164.16h8.23v-1.86h1.86v6.79h-11.92v-6.79h1.83v1.86ZM402.95,167.6v-2h-8.23v2h8.23Z" style="fill: #231f20;"/>
    <path d="M411.64,160.75v-3.68h1.84v3.62c1.88-.08,3.81-.21,5.57-.46l.11,1.35c-3.66.64-7.84.71-10.93.72l-.17-1.51c1.08,0,2.3-.01,3.59-.04ZM417.95,154.11c-.01,1.17-.01,2.91-.44,5.16l-1.84-.16c.38-1.95.44-3.36.46-4.46h-7.01v-1.53h8.83v.99ZM410.72,163.77h1.85v3.66h10.04v1.52h-11.9v-5.18ZM420.17,151.79h1.89v5.58h2.41v1.57h-2.41v6.01h-1.89v-13.16Z" style="fill: #231f20;"/>
    <path d="M427.24,158.91h-1.66l1.04-5.41h2.18l-1.57,5.41Z" style="fill: #231f20;"/>
    <path d="M435.08,159.2h15.97v1.49h-15.97v-1.49ZM449.3,155.09c0,1.97-2.3,3.03-6.25,3.05-3.95-.01-6.26-1.08-6.26-3.05s2.32-3.01,6.26-3.01,6.25,1.06,6.25,3.01ZM436.98,162.04h12.04v4.1h-10.19v1.57h10.69v1.44h-12.51v-4.34h10.18v-1.38h-10.22v-1.39ZM443.05,156.74c2.81,0,4.35-.56,4.35-1.65,0-1.02-1.54-1.63-4.35-1.62-2.79,0-4.33.6-4.32,1.62-.01,1.09,1.53,1.65,4.32,1.65Z" style="fill: #231f20;"/>
    <path d="M458.18,161.94l-.77-1.45c4.06-1.13,6.56-3.32,6.92-6.08h-5.99v-1.51h7.98c-.01,4.45-3.06,7.61-8.14,9.04ZM460.4,162.46h11.45v6.62h-11.45v-6.62ZM470.02,167.59v-3.66h-7.8v3.66h7.8ZM466.37,156.2h3.63v-4.4h1.85v9.93h-1.85v-4h-3.63v-1.53Z" style="fill: #231f20;"/>
    <path d="M483.38,159.94l-.99,1.43c-1.61-.65-2.74-1.87-3.37-3.34-.65,1.64-1.85,3.05-3.54,3.79l-1.01-1.44c2.37-1.03,3.64-3.29,3.64-5.28v-2.24h1.8v2.24c0,1.98,1.21,3.95,3.48,4.85ZM477.57,163.3h11.9v6.01h-1.83v-4.5h-10.07v-1.51ZM483.94,152.12h1.73v4.15h2.05v-4.46h1.76v10.59h-1.76v-4.58h-2.05v4.49h-1.73v-10.18Z" style="fill: #231f20;"/>
    <path d="M500.49,156.2h-8.69v-1.5h3.44v-2.38h1.84v2.38h3.41v1.5ZM496.16,157.25c2.21,0,3.79,1.67,3.81,4.03-.01,2.39-1.6,4.07-3.81,4.07s-3.81-1.68-3.79-4.07c-.01-2.36,1.59-4.03,3.79-4.03ZM496.16,163.75c1.26.01,2.16-.99,2.16-2.47s-.91-2.47-2.16-2.48c-1.26,0-2.16,1.02-2.16,2.48s.9,2.49,2.16,2.47ZM501.31,152.19h1.75v6.91h2.02v-7.3h1.77v17.52h-1.77v-8.7h-2.02v7.88h-1.75v-16.3Z" style="fill: #231f20;"/>
    <path d="M525.1,163.18h-7.11v6.12h-1.82v-6.12h-7.03v-1.51h15.97v1.51ZM516.07,154.32h-5.45v-1.48h12.99v1.48h-5.43c.04,2.16,2.74,4.11,6.05,4.56l-.68,1.46c-2.87-.45-5.35-1.87-6.42-3.86-1.07,2-3.55,3.41-6.39,3.86l-.7-1.46c3.27-.44,5.98-2.4,6.04-4.56Z" style="fill: #231f20;"/>
    <path d="M535.28,163.79l-1.04,1.44c-1.64-.99-2.74-2.74-3.35-4.77-.64,2.22-1.85,4.11-3.55,5.15l-1.16-1.38c2.48-1.48,3.78-4.58,3.78-7.57v-3.27h1.8v3.19c0,2.81,1.17,5.79,3.52,7.22ZM533.38,157.95h2.73v-5.82h1.75v16.31h-1.75v-8.95h-2.73v-1.54ZM539.71,151.79h1.78v17.52h-1.78v-17.52Z" style="fill: #231f20;"/>
    <path d="M559.75,167.12h-16.03v-1.53h3.84v-4.58c-1.45-.79-2.32-2.05-2.32-3.62,0-2.76,2.7-4.57,6.46-4.58,3.77.01,6.48,1.83,6.48,4.58,0,1.55-.85,2.79-2.26,3.58v4.62h3.84v1.53ZM551.69,160.49c2.73,0,4.67-1.22,4.67-3.1s-1.94-3.1-4.67-3.08c-2.74-.01-4.65,1.19-4.65,3.08s1.91,3.1,4.65,3.1ZM554.04,165.59v-3.91c-.72.17-1.51.25-2.34.25s-1.6-.09-2.31-.25v3.9h4.65Z" style="fill: #231f20;"/>
    <path d="M561.62,166.4c-.01-.76.62-1.38,1.39-1.38s1.38.62,1.38,1.38-.64,1.38-1.38,1.38-1.4-.62-1.39-1.38Z" style="fill: #231f20;"/>
  </g>
  <path d="M744.39,59.8h11.27v2.14h-4.37v12.01h-2.53v-12.01h-4.38v-2.14Z" style="fill: #231f20;"/>
  <path d="M757.66,59.8h9.19v2.14h-6.66v3.86h6.17v2.14h-6.17v3.88h6.7v2.14h-9.24v-14.16Z" style="fill: #231f20;"/>
  <path d="M769.3,59.8h2.54v12.01h6.25v2.14h-8.79v-14.16Z" style="fill: #231f20;"/>
  <path d="M745.02,126.8h9.19v2.14h-6.66v3.86h6.17v2.14h-6.17v3.88h6.7v2.14h-9.24v-14.16Z" style="fill: #231f20;"/>
  <path d="M762.96,134.9h-6.37v-2.05h6.37v2.05Z" style="fill: #231f20;"/>
  <path d="M768.65,126.8l4.21,10.29h.17l4.22-10.29h3.12v14.16h-2.45v-9.74h-.13l-3.93,9.7h-1.83l-3.93-9.73h-.12v9.77h-2.45v-14.16h3.12Z" style="fill: #231f20;"/>
  <path d="M782.04,140.96l4.99-14.16h3.14l4.99,14.16h-2.72l-1.17-3.5h-5.33l-1.17,3.5h-2.72ZM790.58,135.41l-1.92-5.72h-.11l-1.92,5.72h3.95Z" style="fill: #231f20;"/>
  <path d="M799.39,140.96h-2.54v-14.16h2.54v14.16Z" style="fill: #231f20;"/>
  <path d="M802.02,126.8h2.54v12.01h6.25v2.14h-8.79v-14.16Z" style="fill: #231f20;"/>
  <rect x="151.36" y="75.37" width="94.74" height="1" style="fill: #231f20;"/>
  <rect x="744.86" y="82.87" width="38.74" height="1" style="fill: #231f20;"/>
  <rect x="744.86" y="149.87" width="65.74" height="1" style="fill: #231f20;"/>
  <g>
    <g>
      <rect x="206.92" y="214.45" width="6.37" height="23.95" style="fill: #004c98;"/>
      <polygon points="240.95 214.45 240.95 219.44 248.95 219.44 248.95 238.41 255.32 238.41 255.32 219.44 263.33 219.44 263.33 214.45 240.95 214.45" style="fill: #004c98;"/>
      <path d="M232.08,223.93h-5.32c-1.41,0-2.56-.58-2.56-2.25s1.15-2.25,2.56-2.25h11.44v-4.99h-12.2c-4.55,0-8.25,2.63-8.25,7.24s3.69,7.23,8.25,7.23h5.47c1.41,0,2.56.58,2.56,2.25s-1.15,2.25-2.56,2.25h-12.84v4.99h13.44c4.55,0,8.24-2.62,8.24-7.23s-3.69-7.24-8.24-7.24" style="fill: #004c98;"/>
      <polygon points="187.53 214.45 178.53 236.01 169.95 226.43 180.68 214.45 173.41 214.45 163.24 225.82 163.24 214.45 156.87 214.45 156.87 238.41 163.24 238.41 163.24 227.03 173.41 238.41 184 238.41 191.29 220.34 196.58 233.62 188.17 233.62 190.17 238.41 205.05 238.41 195.04 214.45 187.53 214.45" style="fill: #004c98;"/>
    </g>
    <g style="clip-path: url(#clippath-1);">
      <g style="clip-path: url(#clippath-2);">
        <rect x="142.1" y="243.68" width="6.8" height="9.58" style="fill: #4dbeee;"/>
        <rect x="148.9" y="243.68" width=".79" height="9.58" style="fill: #4dbeee;"/>
        <rect x="149.69" y="243.68" width=".79" height="9.58" style="fill: #4cbded;"/>
        <rect x="150.49" y="243.68" width=".79" height="9.58" style="fill: #4bbcec;"/>
        <rect x="151.28" y="243.68" width=".79" height="9.58" style="fill: #4bbbec;"/>
        <rect x="152.08" y="243.68" width=".79" height="9.58" style="fill: #4abaeb;"/>
        <rect x="152.87" y="243.68" width=".79" height="9.58" style="fill: #49b9ea;"/>
        <rect x="153.67" y="243.68" width=".79" height="9.58" style="fill: #48b8ea;"/>
        <rect x="154.46" y="243.68" width=".79" height="9.58" style="fill: #47b8e9;"/>
        <rect x="155.26" y="243.68" width=".79" height="9.58" style="fill: #46b7e9;"/>
        <rect x="156.05" y="243.68" width=".79" height="9.58" style="fill: #45b6e8;"/>
        <rect x="156.85" y="243.68" width=".79" height="9.58" style="fill: #44b5e7;"/>
        <rect x="157.64" y="243.68" width=".79" height="9.58" style="fill: #43b4e7;"/>
        <rect x="158.44" y="243.68" width=".79" height="9.58" style="fill: #43b3e6;"/>
        <rect x="159.23" y="243.68" width=".79" height="9.58" style="fill: #42b2e6;"/>
        <rect x="160.03" y="243.68" width=".79" height="9.58" style="fill: #41b1e5;"/>
        <rect x="160.82" y="243.68" width=".79" height="9.58" style="fill: #40b0e4;"/>
        <rect x="161.62" y="243.68" width=".79" height="9.58" style="fill: #3fafe4;"/>
        <rect x="162.41" y="243.68" width=".79" height="9.58" style="fill: #3eaee3;"/>
        <rect x="163.21" y="243.68" width=".79" height="9.58" style="fill: #3eade3;"/>
        <rect x="164" y="243.68" width=".79" height="9.58" style="fill: #3dace2;"/>
        <rect x="164.8" y="243.68" width=".79" height="9.58" style="fill: #3cace2;"/>
        <rect x="165.59" y="243.68" width=".79" height="9.58" style="fill: #3babe1;"/>
        <rect x="166.39" y="243.68" width=".79" height="9.58" style="fill: #3aaae0;"/>
        <rect x="167.18" y="243.68" width=".79" height="9.58" style="fill: #39a9e0;"/>
        <rect x="167.98" y="243.68" width=".79" height="9.58" style="fill: #39a8df;"/>
        <rect x="168.77" y="243.68" width=".79" height="9.58" style="fill: #38a7df;"/>
        <rect x="169.56" y="243.68" width=".79" height="9.58" style="fill: #37a7de;"/>
        <rect x="170.36" y="243.68" width=".79" height="9.58" style="fill: #36a6de;"/>
        <rect x="171.15" y="243.68" width=".79" height="9.58" style="fill: #35a5dd;"/>
        <rect x="171.95" y="243.68" width=".79" height="9.58" style="fill: #35a4dd;"/>
        <rect x="172.74" y="243.68" width=".79" height="9.58" style="fill: #34a3dc;"/>
        <rect x="173.54" y="243.68" width=".79" height="9.58" style="fill: #33a3dc;"/>
        <rect x="174.33" y="243.68" width=".79" height="9.58" style="fill: #32a2db;"/>
        <rect x="175.13" y="243.68" width=".79" height="9.58" style="fill: #31a1db;"/>
        <rect x="175.92" y="243.68" width=".79" height="9.58" style="fill: #30a0da;"/>
        <rect x="176.72" y="243.68" width=".79" height="9.58" style="fill: #30a0da;"/>
        <rect x="177.51" y="243.68" width=".79" height="9.58" style="fill: #2f9fd9;"/>
        <rect x="178.31" y="243.68" width=".79" height="9.58" style="fill: #2e9ed9;"/>
        <rect x="179.1" y="243.68" width=".79" height="9.58" style="fill: #2d9dd8;"/>
        <rect x="179.9" y="243.68" width=".79" height="9.58" style="fill: #2c9dd8;"/>
        <rect x="180.69" y="243.68" width=".79" height="9.58" style="fill: #2b9cd7;"/>
        <rect x="181.49" y="243.68" width=".79" height="9.58" style="fill: #2a9bd7;"/>
        <rect x="182.28" y="243.68" width=".79" height="9.58" style="fill: #2a9bd6;"/>
        <rect x="183.08" y="243.68" width=".79" height="9.58" style="fill: #299ad6;"/>
        <rect x="183.87" y="243.68" width=".79" height="9.58" style="fill: #2899d6;"/>
        <rect x="184.67" y="243.68" width=".79" height="9.58" style="fill: #2799d5;"/>
        <rect x="185.46" y="243.68" width=".79" height="9.58" style="fill: #2798d5;"/>
        <rect x="186.26" y="243.68" width=".79" height="9.58" style="fill: #2697d4;"/>
        <rect x="187.05" y="243.68" width=".79" height="9.58" style="fill: #2597d4;"/>
        <rect x="187.85" y="243.68" width=".79" height="9.58" style="fill: #2496d3;"/>
        <rect x="188.64" y="243.68" width=".79" height="9.58" style="fill: #2396d3;"/>
        <rect x="189.44" y="243.68" width=".79" height="9.58" style="fill: #2395d3;"/>
        <rect x="190.23" y="243.68" width=".79" height="9.58" style="fill: #2294d2;"/>
        <rect x="191.02" y="243.68" width=".79" height="9.58" style="fill: #2194d2;"/>
        <rect x="191.82" y="243.68" width=".79" height="9.58" style="fill: #2093d1;"/>
        <rect x="192.61" y="243.68" width=".79" height="9.58" style="fill: #2093d1;"/>
        <rect x="193.41" y="243.68" width=".79" height="9.58" style="fill: #1f92d1;"/>
        <rect x="194.2" y="243.68" width=".79" height="9.58" style="fill: #1e92d0;"/>
        <rect x="195" y="243.68" width=".79" height="9.58" style="fill: #1d91d0;"/>
        <rect x="195.79" y="243.68" width=".79" height="9.58" style="fill: #1d90d0;"/>
        <rect x="196.59" y="243.68" width=".79" height="9.58" style="fill: #1c90cf;"/>
        <rect x="197.38" y="243.68" width=".79" height="9.58" style="fill: #1b8fcf;"/>
        <rect x="198.18" y="243.68" width=".79" height="9.58" style="fill: #1a8fce;"/>
        <rect x="198.97" y="243.68" width=".79" height="9.58" style="fill: #1a8fce;"/>
        <rect x="199.77" y="243.68" width=".79" height="9.58" style="fill: #198ece;"/>
        <rect x="200.56" y="243.68" width=".79" height="9.58" style="fill: #188ece;"/>
        <rect x="201.36" y="243.68" width=".79" height="9.58" style="fill: #178dcd;"/>
        <rect x="202.15" y="243.68" width=".79" height="9.58" style="fill: #178dcd;"/>
        <rect x="202.95" y="243.68" width=".79" height="9.58" style="fill: #168ccd;"/>
        <rect x="203.74" y="243.68" width=".79" height="9.58" style="fill: #158ccc;"/>
        <rect x="204.54" y="243.68" width=".79" height="9.58" style="fill: #148ccc;"/>
        <rect x="205.33" y="243.68" width=".79" height="9.58" style="fill: #148bcc;"/>
        <rect x="206.13" y="243.68" width=".79" height="9.58" style="fill: #138bcc;"/>
        <rect x="206.92" y="243.68" width=".79" height="9.58" style="fill: #138bcc;"/>
        <rect x="207.72" y="243.68" width=".79" height="9.58" style="fill: #128acb;"/>
        <rect x="208.51" y="243.68" width=".79" height="9.58" style="fill: #128acb;"/>
        <rect x="209.31" y="243.68" width=".79" height="9.58" style="fill: #118acb;"/>
        <rect x="210.1" y="243.68" width=".96" height="9.58" style="fill: #118acb;"/>
        <rect x="211.06" y="243.68" width=".96" height="9.58" style="fill: #0d89ca;"/>
        <rect x="212.01" y="243.68" width=".96" height="9.58" style="fill: #0888c9;"/>
        <rect x="212.97" y="243.68" width=".96" height="9.58" style="fill: #0386c9;"/>
        <rect x="213.93" y="243.68" width=".96" height="9.58" style="fill: #0085c8;"/>
        <rect x="214.88" y="243.68" width=".96" height="9.58" style="fill: #0084c7;"/>
        <rect x="215.84" y="243.68" width=".96" height="9.58" style="fill: #0083c6;"/>
        <rect x="216.79" y="243.68" width=".96" height="9.58" style="fill: #0082c6;"/>
        <rect x="217.75" y="243.68" width=".96" height="9.58" style="fill: #0081c5;"/>
        <rect x="218.71" y="243.68" width=".96" height="9.58" style="fill: #0080c4;"/>
        <rect x="219.66" y="243.68" width=".96" height="9.58" style="fill: #007fc4;"/>
        <rect x="220.62" y="243.68" width=".96" height="9.58" style="fill: #007ec3;"/>
        <rect x="221.58" y="243.68" width=".96" height="9.58" style="fill: #007dc2;"/>
        <rect x="222.53" y="243.68" width=".96" height="9.58" style="fill: #007cc2;"/>
        <rect x="223.49" y="243.68" width=".96" height="9.58" style="fill: #007bc1;"/>
        <rect x="224.44" y="243.68" width=".96" height="9.58" style="fill: #007ac0;"/>
        <rect x="225.4" y="243.68" width=".96" height="9.58" style="fill: #0079c0;"/>
        <rect x="226.36" y="243.68" width=".96" height="9.58" style="fill: #0079bf;"/>
        <rect x="227.31" y="243.68" width=".96" height="9.58" style="fill: #0078bf;"/>
        <rect x="228.27" y="243.68" width=".96" height="9.58" style="fill: #0077be;"/>
        <rect x="229.23" y="243.68" width=".96" height="9.58" style="fill: #0076be;"/>
        <rect x="230.18" y="243.68" width=".96" height="9.58" style="fill: #0075bd;"/>
        <rect x="231.14" y="243.68" width=".96" height="9.58" style="fill: #0075bd;"/>
        <rect x="232.09" y="243.68" width=".96" height="9.58" style="fill: #0074bc;"/>
        <rect x="233.05" y="243.68" width=".96" height="9.58" style="fill: #0073bc;"/>
        <rect x="234.01" y="243.68" width=".96" height="9.58" style="fill: #0073bb;"/>
        <rect x="234.96" y="243.68" width=".96" height="9.58" style="fill: #0072bb;"/>
        <rect x="235.92" y="243.68" width=".96" height="9.58" style="fill: #0071ba;"/>
        <rect x="236.88" y="243.68" width=".96" height="9.58" style="fill: #0071ba;"/>
        <rect x="237.83" y="243.68" width=".96" height="9.58" style="fill: #0070ba;"/>
        <rect x="238.79" y="243.68" width=".96" height="9.58" style="fill: #0070b9;"/>
        <rect x="239.74" y="243.68" width=".96" height="9.58" style="fill: #006fb9;"/>
        <rect x="240.7" y="243.68" width=".96" height="9.58" style="fill: #006fb9;"/>
        <rect x="241.66" y="243.68" width=".96" height="9.58" style="fill: #006eb8;"/>
        <rect x="242.61" y="243.68" width=".96" height="9.58" style="fill: #006eb8;"/>
        <rect x="243.57" y="243.68" width=".96" height="9.58" style="fill: #006db8;"/>
        <rect x="244.53" y="243.68" width=".96" height="9.58" style="fill: #006db7;"/>
        <rect x="245.48" y="243.68" width=".96" height="9.58" style="fill: #006cb7;"/>
        <rect x="246.44" y="243.68" width=".96" height="9.58" style="fill: #006cb7;"/>
        <rect x="247.39" y="243.68" width=".96" height="9.58" style="fill: #006bb6;"/>
        <rect x="248.35" y="243.68" width=".96" height="9.58" style="fill: #006bb6;"/>
        <rect x="249.31" y="243.68" width=".96" height="9.58" style="fill: #006ab6;"/>
        <rect x="250.26" y="243.68" width=".96" height="9.58" style="fill: #006ab6;"/>
        <rect x="251.22" y="243.68" width=".96" height="9.58" style="fill: #006ab5;"/>
        <rect x="252.18" y="243.68" width=".96" height="9.58" style="fill: #0069b5;"/>
        <rect x="253.13" y="243.68" width=".96" height="9.58" style="fill: #0069b5;"/>
        <rect x="254.09" y="243.68" width=".96" height="9.58" style="fill: #0069b5;"/>
        <rect x="255.04" y="243.68" width=".96" height="9.58" style="fill: #0069b4;"/>
        <rect x="256" y="243.68" width=".96" height="9.58" style="fill: #0068b4;"/>
        <rect x="256.96" y="243.68" width=".96" height="9.58" style="fill: #0068b4;"/>
        <rect x="257.91" y="243.68" width=".96" height="9.58" style="fill: #0068b4;"/>
        <rect x="258.87" y="243.68" width=".96" height="9.58" style="fill: #0068b4;"/>
        <rect x="259.83" y="243.68" width=".96" height="9.58" style="fill: #0067b4;"/>
        <rect x="260.78" y="243.68" width=".96" height="9.58" style="fill: #0067b4;"/>
        <rect x="261.74" y="243.68" width=".96" height="9.58" style="fill: #0067b3;"/>
        <rect x="262.69" y="243.68" width=".96" height="9.58" style="fill: #0067b3;"/>
        <rect x="263.65" y="243.68" width=".96" height="9.58" style="fill: #0067b3;"/>
        <rect x="264.61" y="243.68" width=".96" height="9.58" style="fill: #0067b3;"/>
        <rect x="265.56" y="243.68" width=".96" height="9.58" style="fill: #0067b3;"/>
        <rect x="266.52" y="243.68" width=".96" height="9.58" style="fill: #0066b3;"/>
        <rect x="267.48" y="243.68" width=".96" height="9.58" style="fill: #0066b3;"/>
        <rect x="268.43" y="243.68" width=".96" height="9.58" style="fill: #0066b3;"/>
        <rect x="269.39" y="243.68" width=".96" height="9.58" style="fill: #0066b3;"/>
        <rect x="270.34" y="243.68" width=".96" height="9.58" style="fill: #0066b3;"/>
        <rect x="271.3" y="243.68" width="6.8" height="9.58" style="fill: #0066b3;"/>
      </g>
    </g>
  </g>
  <g>
    <g>
      <g>
        <rect x="851.86" y="218.23" width="2.05" height="7.74" style="fill: #002f87;"/>
        <polygon points="862.85 218.23 862.85 219.84 865.44 219.84 865.44 225.97 867.49 225.97 867.49 219.84 870.08 219.84 870.08 218.23 862.85 218.23" style="fill: #002f87;"/>
        <path d="M859.99,221.29h-1.72c-.45,0-.83-.19-.83-.73s.37-.73.83-.73h3.7v-1.61h-3.94c-1.47,0-2.66.85-2.66,2.34s1.19,2.34,2.66,2.34h1.77c.45,0,.83.19.83.73s-.37.72-.83.72h-4.15v1.61h4.34c1.47,0,2.66-.85,2.66-2.34s-1.19-2.34-2.66-2.34Z" style="fill: #002f87;"/>
        <polygon points="845.6 218.23 842.69 225.19 839.92 222.1 843.39 218.23 841.04 218.23 837.75 221.9 837.75 218.23 835.7 218.23 835.7 225.97 837.75 225.97 837.75 222.29 841.04 225.97 844.46 225.97 846.82 220.13 848.52 224.42 845.81 224.42 846.45 225.97 851.26 225.97 848.03 218.23 845.6 218.23" style="fill: #002f87;"/>
      </g>
      <g>
        <path d="M838.02,250.53l-1.14-1.56-.42.44v1.12h-.81v-3.67h.81v1.6l1.49-1.6h.97l-1.49,1.56,1.56,2.11h-.97Z" style="fill: #002f87;"/>
        <path d="M841.79,250.53l-.34-.82h-1.55l-.34.82h-.82l1.57-3.69h.74l1.57,3.69h-.84ZM840.68,247.81l-.49,1.19h.97l-.49-1.19Z" style="fill: #002f87;"/>
        <path d="M843,250.53v-3.67h.81v3.67h-.81Z" style="fill: #002f87;"/>
        <path d="M847.22,249.93c-.07.14-.16.26-.28.36-.12.1-.26.17-.42.22-.16.05-.34.08-.54.08-.28,0-.55-.05-.82-.14-.27-.1-.51-.24-.73-.44l.48-.57c.17.14.34.24.52.33.18.08.37.12.58.12.17,0,.3-.03.39-.09.09-.06.14-.15.14-.25h0c0-.06,0-.11-.03-.15-.02-.04-.06-.08-.11-.11-.05-.03-.13-.07-.23-.1s-.22-.07-.38-.11c-.19-.05-.35-.1-.5-.15-.15-.06-.28-.13-.38-.21-.1-.08-.19-.18-.24-.31-.06-.12-.09-.27-.09-.46h0c0-.18.03-.33.09-.46.06-.14.15-.25.26-.35.11-.1.25-.17.4-.23.16-.05.33-.08.52-.08.27,0,.52.04.74.12.23.08.43.2.62.35l-.42.61c-.16-.11-.33-.2-.48-.26-.16-.06-.31-.1-.47-.1s-.28.03-.35.09c-.08.06-.12.14-.12.23h0c0,.07.01.12.03.17.02.04.06.08.12.12s.14.07.24.1c.1.03.23.07.39.11.19.05.35.1.5.17.15.06.27.13.37.22.1.09.17.19.23.3.05.11.08.25.08.41h0c0,.19-.03.35-.1.5Z" style="fill: #002f87;"/>
        <path d="M849.55,247.61v2.92h-.81v-2.92h-1.12v-.74h3.04v.74h-1.12Z" style="fill: #002f87;"/>
        <path d="M855.61,250.21c-.1.08-.21.15-.33.21-.12.06-.25.1-.4.13-.14.03-.3.04-.48.04-.27,0-.52-.05-.75-.15-.23-.1-.43-.23-.6-.4-.17-.17-.3-.37-.39-.6-.09-.23-.14-.48-.14-.74h0c0-.27.05-.52.14-.75.09-.23.23-.43.39-.6.17-.17.37-.31.6-.41.23-.1.49-.15.78-.15.17,0,.33.01.47.04s.27.07.39.12c.11.05.22.11.32.18.1.07.19.15.27.23l-.51.59c-.14-.13-.29-.23-.44-.3-.15-.07-.32-.11-.5-.11-.15,0-.3.03-.43.09-.13.06-.24.14-.34.25s-.17.23-.22.36c-.05.14-.08.29-.08.44h0c0,.17.03.32.08.46s.13.26.22.37c.09.11.2.19.34.25.13.06.28.09.43.09.21,0,.39-.04.53-.12.15-.08.29-.18.43-.31l.51.52c-.09.1-.19.19-.29.27Z" style="fill: #002f87;"/>
        <path d="M858.84,249.3s0,.06,0,.1h-1.95c.04.18.12.32.24.41.12.09.27.14.45.14.13,0,.25-.02.36-.07.1-.05.21-.12.32-.22l.46.4c-.13.16-.29.29-.48.39-.19.09-.41.14-.67.14-.21,0-.4-.03-.58-.1-.18-.07-.34-.17-.47-.3-.13-.13-.23-.28-.31-.46-.07-.18-.11-.37-.11-.59h0c0-.21.03-.4.1-.58.07-.18.16-.33.29-.47.12-.13.27-.24.44-.31.17-.08.36-.12.56-.12.23,0,.44.04.61.13.17.08.31.2.43.34.11.14.2.3.25.49.05.18.08.37.08.57h0s0,.08,0,.11ZM857.88,248.47c-.1-.11-.24-.17-.4-.17s-.3.05-.41.16c-.1.11-.17.25-.2.44h1.2c-.02-.18-.09-.32-.19-.43Z" style="fill: #002f87;"/>
        <path d="M861.08,250.53v-1.56c0-.19-.04-.33-.13-.43-.08-.1-.2-.14-.36-.14s-.28.05-.36.14c-.09.1-.13.24-.13.43v1.56h-.8v-2.81h.8v.4c.05-.06.1-.12.15-.17.05-.05.11-.1.18-.14.07-.04.14-.08.22-.1.08-.02.17-.04.27-.04.3,0,.54.09.7.28.17.19.25.44.25.77v1.82h-.8Z" style="fill: #002f87;"/>
        <path d="M863.74,250.53c-.1.03-.22.04-.35.04-.12,0-.23-.01-.33-.04-.1-.03-.18-.07-.26-.14-.07-.07-.13-.15-.17-.26-.04-.11-.06-.24-.06-.41v-1.33h-.34v-.68h.34v-.72h.8v.72h.66v.68h-.66v1.2c0,.18.09.27.26.27.14,0,.27-.03.39-.1v.64c-.08.05-.18.09-.28.12Z" style="fill: #002f87;"/>
        <path d="M867.1,249.3s0,.06,0,.1h-1.95c.04.18.12.32.24.41.12.09.27.14.45.14.13,0,.25-.02.36-.07.1-.05.21-.12.32-.22l.46.4c-.13.16-.29.29-.48.39-.19.09-.41.14-.67.14-.21,0-.4-.03-.58-.1-.18-.07-.34-.17-.47-.3-.13-.13-.23-.28-.31-.46s-.11-.37-.11-.59h0c0-.21.03-.4.1-.58.07-.18.16-.33.29-.47.12-.13.27-.24.44-.31.17-.08.36-.12.56-.12.23,0,.44.04.61.13.17.08.31.2.43.34.11.14.2.3.25.49.05.18.08.37.08.57h0s0,.08,0,.11ZM866.14,248.47c-.1-.11-.24-.17-.4-.17s-.3.05-.41.16c-.1.11-.17.25-.2.44h1.2c-.02-.18-.09-.32-.19-.43Z" style="fill: #002f87;"/>
        <path d="M869.22,248.5c-.27,0-.47.08-.63.24-.15.16-.23.41-.23.75v1.04h-.8v-2.81h.8v.57c.08-.19.19-.35.33-.46.14-.12.33-.17.57-.16v.83h-.04Z" style="fill: #002f87;"/>
        <path d="M872.47,247.36c-.06-.01-.12-.02-.19-.02-.19,0-.29.1-.29.3v.11h.65v.65h-.63v2.13h-.8v-2.13h-.33v-.65h.33v-.18c0-.31.07-.54.22-.68.15-.14.36-.22.65-.22.13,0,.23,0,.32.02s.17.03.24.06v.66c-.06-.02-.12-.04-.17-.05Z" style="fill: #002f87;"/>
        <path d="M875.72,249.7c-.08.18-.18.33-.32.46-.14.13-.3.24-.48.31-.18.08-.39.12-.61.12s-.42-.04-.6-.11c-.18-.07-.35-.18-.48-.31-.13-.13-.24-.28-.32-.46-.08-.18-.12-.37-.12-.57h0c0-.21.04-.4.12-.58.08-.18.18-.33.32-.46.14-.13.3-.24.48-.31.18-.08.39-.12.61-.12s.42.04.6.11c.18.08.34.18.48.31.13.13.24.28.32.46.08.18.12.37.12.57h0c0,.21-.04.4-.12.58ZM875.05,249.13c0-.1-.02-.2-.05-.3-.03-.09-.09-.17-.15-.25-.07-.07-.14-.13-.24-.17-.09-.04-.19-.06-.3-.06-.12,0-.22.02-.31.06-.09.04-.17.1-.23.16-.06.07-.11.15-.14.24-.03.09-.05.19-.05.3h0c0,.12.02.21.05.31.03.09.09.17.15.25.07.07.14.13.23.17.09.04.19.06.3.06s.22-.02.31-.06c.09-.04.16-.1.23-.17.06-.07.11-.15.14-.24.03-.09.05-.19.05-.3h0Z" style="fill: #002f87;"/>
        <path d="M877.93,248.5c-.27,0-.47.08-.63.24-.15.16-.23.41-.23.75v1.04h-.8v-2.81h.8v.57c.08-.19.19-.35.33-.46.14-.12.33-.17.57-.16v.83h-.04Z" style="fill: #002f87;"/>
        <path d="M882.8,250.21c-.1.08-.21.15-.33.21-.12.06-.25.1-.4.13-.14.03-.3.04-.48.04-.27,0-.52-.05-.75-.15-.23-.1-.43-.23-.6-.4-.17-.17-.3-.37-.39-.6-.09-.23-.14-.48-.14-.74h0c0-.27.05-.52.14-.75.09-.23.23-.43.39-.6.17-.17.37-.31.6-.41.23-.1.49-.15.78-.15.17,0,.33.01.47.04.14.03.27.07.39.12.12.05.22.11.32.18.1.07.19.15.27.23l-.51.59c-.14-.13-.29-.23-.44-.3s-.32-.11-.5-.11c-.15,0-.3.03-.43.09-.13.06-.24.14-.34.25-.09.1-.17.23-.22.36-.05.14-.08.29-.08.44h0c0,.17.03.32.08.46.05.14.12.26.22.37.09.11.2.19.34.25.13.06.27.09.43.09.21,0,.39-.04.53-.12.14-.08.29-.18.43-.31l.51.52c-.09.1-.19.19-.29.27Z" style="fill: #002f87;"/>
        <path d="M886.31,249.7c-.08.18-.18.33-.32.46-.14.13-.3.24-.48.31-.19.08-.39.12-.61.12s-.42-.04-.6-.11c-.19-.07-.34-.18-.48-.31-.14-.13-.24-.28-.32-.46-.08-.18-.11-.37-.11-.57h0c0-.21.04-.4.11-.58.08-.18.18-.33.32-.46.14-.13.3-.24.48-.31.19-.08.39-.12.61-.12s.42.04.6.11c.19.08.34.18.48.31.14.13.24.28.32.46.08.18.11.37.11.57h0c0,.21-.04.4-.11.58ZM885.64,249.13c0-.1-.02-.2-.05-.3-.03-.09-.09-.17-.15-.25-.07-.07-.14-.13-.24-.17-.09-.04-.19-.06-.3-.06-.12,0-.22.02-.31.06-.09.04-.17.1-.23.16-.06.07-.11.15-.14.24-.03.09-.05.19-.05.3h0c0,.12.02.21.05.31.03.09.09.17.15.25.07.07.14.13.23.17.09.04.19.06.3.06s.22-.02.31-.06c.09-.04.17-.1.23-.17.06-.07.11-.15.14-.24.03-.09.05-.19.05-.3h0Z" style="fill: #002f87;"/>
        <path d="M888.65,250.53v-1.56c0-.19-.04-.33-.13-.43-.08-.1-.2-.14-.36-.14s-.27.05-.36.14c-.09.1-.13.24-.13.43v1.56h-.8v-2.81h.8v.4c.05-.06.1-.12.15-.17.05-.05.11-.1.18-.14.07-.04.14-.08.22-.1.08-.02.17-.04.27-.04.3,0,.54.09.7.28.17.19.25.44.25.77v1.82h-.8Z" style="fill: #002f87;"/>
        <path d="M891.4,250.53c-.1.03-.22.04-.35.04-.12,0-.23-.01-.33-.04-.1-.03-.19-.07-.26-.14-.07-.07-.13-.15-.17-.26-.04-.11-.06-.24-.06-.41v-1.33h-.44v-.68h.44v-.72h.8v.72h.66v.68h-.66v1.2c0,.18.09.27.26.27.14,0,.27-.03.39-.1v.64c-.08.05-.18.09-.28.12Z" style="fill: #002f87;"/>
        <path d="M894.76,249.3s0,.06,0,.1h-1.95c.04.18.12.32.24.41.12.09.27.14.45.14.13,0,.25-.02.36-.07s.21-.12.32-.22l.46.4c-.13.16-.29.29-.48.39-.19.09-.41.14-.67.14-.21,0-.4-.03-.58-.1-.18-.07-.34-.17-.47-.3-.13-.13-.23-.28-.31-.46s-.11-.37-.11-.59h0c0-.21.03-.4.1-.58.07-.18.16-.33.29-.47.12-.13.27-.24.44-.31.17-.08.36-.12.56-.12.23,0,.44.04.61.13.17.08.31.2.43.34.11.14.2.3.25.49.05.18.08.37.08.57h0s0,.08,0,.11ZM893.8,248.47c-.1-.11-.24-.17-.4-.17s-.3.05-.41.16c-.1.11-.17.25-.2.44h1.2c-.02-.18-.09-.32-.19-.43Z" style="fill: #002f87;"/>
        <path d="M898.72,250.53v-1.56c0-.19-.04-.33-.12-.43-.08-.1-.2-.14-.35-.14s-.27.05-.35.14c-.09.1-.13.24-.13.43v1.56h-.8v-1.56c0-.19-.04-.33-.12-.43-.08-.1-.2-.14-.35-.14s-.27.05-.35.14c-.09.1-.13.24-.13.43v1.56h-.8v-2.81h.8v.4c.05-.06.1-.12.15-.17.05-.05.11-.1.18-.14.07-.04.14-.08.22-.1.08-.02.17-.04.27-.04.19,0,.35.04.48.12.13.08.24.19.31.33.12-.15.26-.26.41-.33.15-.08.32-.11.51-.11.3,0,.53.09.7.26.17.17.25.43.25.77v1.83h-.8Z" style="fill: #002f87;"/>
        <path d="M902.92,249.75c-.07.18-.17.33-.28.46-.12.12-.25.22-.41.28-.15.06-.31.09-.48.09-.21,0-.39-.04-.53-.12-.14-.08-.25-.18-.35-.29v1.2h-.8v-3.65h.8v.4c.1-.13.22-.24.35-.33.14-.08.31-.13.52-.13.16,0,.32.03.48.09.15.06.29.16.41.28.12.12.21.28.29.46.07.18.11.39.11.62h0c0,.24-.04.45-.11.63ZM902.23,249.12c0-.12-.02-.22-.05-.32-.04-.1-.09-.18-.15-.25-.06-.07-.14-.12-.22-.16-.08-.04-.17-.06-.26-.06s-.18.02-.26.06c-.08.04-.15.09-.21.16-.06.07-.11.15-.15.25-.04.1-.06.2-.06.32h0c0,.13.02.23.06.33.04.1.09.18.15.25.06.07.13.12.21.16.08.04.17.06.26.06s.18-.02.26-.06c.08-.04.15-.09.22-.16.06-.07.11-.15.15-.24.04-.1.05-.2.05-.32h0Z" style="fill: #002f87;"/>
        <path d="M903.52,250.53v-3.83h.8v3.83h-.8Z" style="fill: #002f87;"/>
        <path d="M906.58,250.53v-.3c-.1.11-.21.19-.35.26-.14.06-.3.1-.5.1-.13,0-.26-.02-.37-.05-.12-.04-.22-.09-.31-.17-.09-.07-.16-.16-.21-.27-.05-.11-.08-.23-.08-.37h0c0-.16.03-.3.08-.41s.13-.2.23-.28c.1-.07.22-.13.36-.17.14-.04.29-.06.46-.06.14,0,.27.01.38.03.11.02.21.05.31.08v-.05c0-.17-.05-.3-.15-.38-.1-.09-.25-.13-.45-.13-.15,0-.29.01-.41.04-.12.03-.24.06-.37.11l-.2-.61c.15-.07.31-.12.48-.16.17-.04.37-.06.61-.06.44,0,.75.11.95.32.2.21.3.51.3.89v1.63h-.77ZM906.59,249.4c-.07-.03-.15-.06-.23-.08-.09-.02-.18-.03-.27-.03-.17,0-.31.03-.4.1-.1.07-.15.16-.15.29h0c0,.12.04.2.12.26.08.06.18.09.31.09.19,0,.34-.05.45-.14.11-.09.17-.21.17-.36v-.14Z" style="fill: #002f87;"/>
        <path d="M909.2,250.53c-.1.03-.22.04-.35.04-.12,0-.23-.01-.33-.04-.1-.03-.18-.07-.26-.14-.07-.07-.13-.15-.17-.26-.04-.11-.06-.24-.06-.41v-1.33h-.34v-.68h.34v-.72h.8v.72h.66v.68h-.66v1.2c0,.18.09.27.26.27.14,0,.27-.03.39-.1v.64c-.08.05-.18.09-.28.12Z" style="fill: #002f87;"/>
        <path d="M909.96,247.41v-.71h.84v.71h-.84ZM909.98,250.53v-2.81h.8v2.81h-.8Z" style="fill: #002f87;"/>
        <path d="M912.98,250.55h-.72l-1.11-2.83h.84l.63,1.88.63-1.88h.83l-1.11,2.83Z" style="fill: #002f87;"/>
        <path d="M917.03,249.3s0,.06,0,.1h-1.95c.04.18.12.32.24.41.12.09.27.14.45.14.13,0,.25-.02.36-.07s.21-.12.32-.22l.46.4c-.13.16-.29.29-.48.39-.19.09-.41.14-.67.14-.21,0-.4-.03-.58-.1-.18-.07-.34-.17-.47-.3-.13-.13-.23-.28-.31-.46-.07-.18-.11-.37-.11-.59h0c0-.21.03-.4.1-.58.07-.18.16-.33.29-.47.12-.13.27-.24.44-.31.17-.08.36-.12.56-.12.23,0,.44.04.61.13.17.08.31.2.43.34.11.14.2.3.25.49.05.18.08.37.08.57h0s0,.08,0,.11ZM916.07,248.47c-.1-.11-.24-.17-.4-.17s-.3.05-.41.16c-.1.11-.17.25-.2.44h1.2c-.02-.18-.09-.32-.19-.43Z" style="fill: #002f87;"/>
        <path d="M921.57,249.93c-.07.14-.16.26-.28.36-.12.1-.26.17-.42.22-.16.05-.34.08-.54.08-.28,0-.55-.05-.82-.14-.27-.1-.51-.24-.73-.44l.48-.57c.17.14.34.24.52.33.18.08.37.12.58.12.17,0,.3-.03.39-.09.09-.06.14-.15.14-.25h0c0-.06,0-.11-.03-.15s-.06-.08-.11-.11c-.05-.03-.13-.07-.23-.1-.1-.03-.22-.07-.38-.11-.19-.05-.35-.1-.5-.15-.15-.06-.28-.13-.38-.21-.11-.08-.19-.18-.24-.31-.06-.12-.09-.27-.09-.46h0c0-.18.03-.33.09-.46.06-.14.15-.25.26-.35.11-.1.25-.17.4-.23.16-.05.33-.08.52-.08.27,0,.52.04.74.12.23.08.43.2.62.35l-.42.61c-.16-.11-.33-.2-.48-.26-.16-.06-.31-.1-.47-.1s-.27.03-.35.09c-.08.06-.12.14-.12.23h0c0,.07.01.12.03.17.02.04.06.08.12.12s.14.07.24.1c.1.03.23.07.39.11.19.05.35.1.5.17.15.06.27.13.37.22.1.09.17.19.23.3.05.11.08.25.08.41h0c0,.19-.03.35-.1.5Z" style="fill: #002f87;"/>
        <path d="M924.16,250.45c-.17.1-.4.14-.68.14-.21,0-.4-.04-.58-.12-.18-.08-.33-.18-.46-.31-.13-.13-.23-.28-.3-.46-.07-.18-.11-.36-.11-.56h0c0-.21.04-.4.11-.58s.17-.33.3-.47c.13-.13.28-.24.46-.31.18-.08.38-.12.59-.12.27,0,.49.04.66.13.17.08.33.2.46.35l-.49.52c-.09-.09-.18-.17-.28-.23-.1-.06-.22-.08-.36-.08-.1,0-.19.02-.28.06-.08.04-.15.1-.21.16-.06.07-.11.15-.14.24-.03.09-.05.19-.05.3h0c0,.12.02.22.05.31.03.09.08.18.14.25.06.07.14.13.23.17.09.04.19.06.29.06.13,0,.25-.03.35-.08.1-.05.2-.13.3-.22l.47.47c-.14.15-.29.27-.47.37Z" style="fill: #002f87;"/>
        <path d="M925.03,247.41v-.71h.84v.71h-.84ZM925.05,250.53v-2.81h.8v2.81h-.8Z" style="fill: #002f87;"/>
        <path d="M929.08,249.3s0,.06,0,.1h-1.95c.04.18.12.32.24.41.12.09.27.14.45.14.13,0,.25-.02.36-.07.1-.05.21-.12.32-.22l.46.4c-.13.16-.29.29-.48.39-.19.09-.41.14-.67.14-.21,0-.4-.03-.58-.1-.18-.07-.34-.17-.47-.3-.13-.13-.23-.28-.31-.46-.07-.18-.11-.37-.11-.59h0c0-.21.03-.4.1-.58.07-.18.16-.33.29-.47.12-.13.27-.24.44-.31.17-.08.36-.12.56-.12.23,0,.44.04.61.13.17.08.31.2.43.34.11.14.2.3.25.49.05.18.08.37.08.57h0s0,.08,0,.11ZM928.12,248.47c-.1-.11-.24-.17-.4-.17s-.3.05-.41.16c-.1.11-.17.25-.2.44h1.2c-.02-.18-.09-.32-.19-.43Z" style="fill: #002f87;"/>
        <path d="M931.32,250.53v-1.56c0-.19-.04-.33-.13-.43-.08-.1-.2-.14-.36-.14s-.27.05-.36.14c-.09.1-.13.24-.13.43v1.56h-.8v-2.81h.8v.4c.05-.06.1-.12.15-.17.05-.05.11-.1.18-.14.07-.04.14-.08.22-.1s.17-.04.27-.04c.3,0,.54.09.71.28.17.19.25.44.25.77v1.82h-.8Z" style="fill: #002f87;"/>
        <path d="M934.69,250.45c-.17.1-.4.14-.68.14-.21,0-.4-.04-.58-.12-.18-.08-.33-.18-.46-.31-.13-.13-.23-.28-.3-.46-.07-.18-.11-.36-.11-.56h0c0-.21.04-.4.11-.58.07-.18.17-.33.3-.47.13-.13.28-.24.46-.31.18-.08.38-.12.59-.12.27,0,.49.04.66.13.17.08.33.2.46.35l-.49.52c-.09-.09-.18-.17-.28-.23-.1-.06-.22-.08-.36-.08-.1,0-.19.02-.28.06-.08.04-.15.1-.21.16-.06.07-.11.15-.14.24-.03.09-.05.19-.05.3h0c0,.12.02.22.05.31.03.09.08.18.14.25.06.07.14.13.23.17.09.04.19.06.29.06.13,0,.25-.03.35-.08.1-.05.2-.13.3-.22l.47.47c-.14.15-.29.27-.47.37Z" style="fill: #002f87;"/>
        <path d="M938.16,249.3s0,.06,0,.1h-1.95c.04.18.12.32.24.41.12.09.27.14.45.14.13,0,.25-.02.36-.07.1-.05.21-.12.32-.22l.46.4c-.13.16-.29.29-.48.39-.19.09-.41.14-.67.14-.21,0-.4-.03-.58-.1-.18-.07-.34-.17-.47-.3-.13-.13-.23-.28-.31-.46s-.11-.37-.11-.59h0c0-.21.03-.4.1-.58.07-.18.16-.33.29-.47.12-.13.27-.24.44-.31.17-.08.36-.12.56-.12.23,0,.44.04.61.13.17.08.31.2.43.34.11.14.2.3.25.49.05.18.08.37.08.57h0s0,.08,0,.11ZM937.2,248.47c-.1-.11-.24-.17-.4-.17s-.3.05-.41.16c-.1.11-.17.25-.2.44h1.2c-.02-.18-.09-.32-.19-.43Z" style="fill: #002f87;"/>
      </g>
      <g>
        <rect x="860.12" y="231.99" width="3.66" height="1.84" style="fill: #002f87;"/>
        <g>
          <path d="M899.36,236.4c-1.9,0-3.45-1.55-3.45-3.45s1.55-3.45,3.45-3.45,3.45,1.55,3.45,3.45-1.55,3.45-3.45,3.45ZM899.36,231.47c-.82,0-1.48.66-1.48,1.48s.66,1.48,1.48,1.48,1.48-.66,1.48-1.48-.66-1.48-1.48-1.48Z" style="fill: #002f87;"/>
          <g>
            <g>
              <rect x="890.68" y="229.58" width="1.98" height="6.65" style="fill: #002f87;"/>
              <rect x="890.96" y="231.99" width="3.66" height="1.84" style="fill: #002f87;"/>
            </g>
            <rect x="890.62" y="237.18" width="1.98" height="4.11" style="fill: #002f87;"/>
            <rect x="880.84" y="237.18" width="11.13" height="1.83" style="fill: #002f87;"/>
          </g>
          <g>
            <rect x="883.28" y="228.19" width="2" height="1.96" style="fill: #002f87;"/>
            <rect x="880.16" y="229.58" width="8.25" height="1.84" style="fill: #002f87;"/>
            <path d="M884.29,236.1c-1.73,0-3.14-1.41-3.14-3.14s1.41-3.14,3.14-3.14,3.14,1.41,3.14,3.14-1.41,3.14-3.14,3.14ZM884.29,231.8c-.63,0-1.15.51-1.15,1.15s.51,1.15,1.15,1.15,1.15-.51,1.15-1.15-.51-1.15-1.15-1.15Z" style="fill: #002f87;"/>
          </g>
          <polygon points="870.95 235.58 872.93 235.58 872.93 229.58 865.23 229.58 865.23 231.41 870.95 231.41 870.95 235.58" style="fill: #002f87;"/>
          <polygon points="869.19 233.75 867.21 233.75 867.21 237.18 864.23 237.18 864.23 239.02 874.01 239.02 874.01 237.18 869.19 237.18 869.19 233.75" style="fill: #002f87;"/>
          <polygon points="879.37 233.24 877.42 233.24 877.42 229.58 875.43 229.58 875.43 239.02 877.42 239.02 877.42 235.07 879.37 235.07 879.37 233.24" style="fill: #002f87;"/>
          <g>
            <polygon points="920.72 234.21 922.7 234.21 922.7 229.58 911.88 229.58 911.88 231.41 920.72 231.41 920.72 234.21" style="fill: #002f87;"/>
            <polygon points="924.39 235.44 910.29 235.44 910.29 237.28 916.52 237.28 916.52 241.29 918.51 241.29 918.51 237.28 924.39 237.28 924.39 235.44" style="fill: #002f87;"/>
          </g>
          <g>
            <polygon points="932.54 238.7 932.54 235.48 930.56 235.48 930.56 238.7 924.5 238.7 924.5 240.53 938.6 240.53 938.6 238.7 932.54 238.7" style="fill: #002f87;"/>
            <polygon points="931.55 232.11 935.82 236.51 937.27 235.15 931.55 229.35 925.83 235.15 927.27 236.51 931.55 232.11" style="fill: #002f87;"/>
          </g>
          <polygon points="863.78 231.99 861.82 231.99 861.82 229.58 859.84 229.58 859.84 236.23 861.82 236.23 861.82 233.82 863.78 233.82 863.78 231.99" style="fill: #002f87;"/>
          <path d="M857.82,237.1c-1.77,0-3.21,1.44-3.21,3.21s1.44,3.21,3.21,3.21,3.21-1.44,3.21-3.21-1.44-3.21-3.21-3.21ZM857.82,241.54c-.68,0-1.23-.55-1.23-1.23s.55-1.23,1.23-1.23,1.23.55,1.23,1.23-.55,1.23-1.23,1.23Z" style="fill: #002f87;"/>
          <polygon points="856.59 236.18 858.2 234.91 853.81 229.35 849.43 234.91 851.04 236.18 853.81 232.53 856.59 236.18" style="fill: #002f87;"/>
          <rect x="859.84" y="229.58" width="1.98" height="6.65" style="fill: #002f87;"/>
          <path d="M857.82,243.52c-1.77,0-3.21-1.44-3.21-3.21s1.44-3.21,3.21-3.21,3.21,1.44,3.21,3.21-1.44,3.21-3.21,3.21ZM857.82,239.08c-.68,0-1.23.55-1.23,1.23s.55,1.23,1.23,1.23,1.23-.55,1.23-1.23-.55-1.23-1.23-1.23Z" style="fill: #002f87;"/>
          <path d="M842.33,229.58h-6.64v6.65h6.64v-6.65ZM840.35,234.4h-2.67v-2.98h2.67v2.98Z" style="fill: #002f87;"/>
          <path d="M843.89,237.1c-1.77,0-3.21,1.44-3.21,3.21s1.44,3.21,3.21,3.21,3.21-1.44,3.21-3.21-1.44-3.21-3.21-3.21ZM843.89,241.54c-.68,0-1.23-.55-1.23-1.23s.55-1.23,1.23-1.23,1.23.55,1.23,1.23-.55,1.23-1.23,1.23Z" style="fill: #002f87;"/>
          <polygon points="845.91 229.58 845.91 230.59 843.62 230.59 843.62 232.33 845.91 232.33 845.91 233.48 843.62 233.48 843.62 235.22 845.91 235.22 845.91 236.23 847.89 236.23 847.89 229.58 845.91 229.58" style="fill: #002f87;"/>
          <path d="M902.81,232.95c0-1.9-1.55-3.45-3.45-3.45s-3.45,1.55-3.45,3.45,1.55,3.45,3.45,3.45,3.45-1.55,3.45-3.45ZM897.89,232.95c0-.82.66-1.48,1.48-1.48s1.48.66,1.48,1.48-.66,1.48-1.48,1.48-1.48-.66-1.48-1.48Z" style="fill: #002f87;"/>
          <polygon points="906.73 229.58 906.73 230.59 904.15 230.59 904.15 232.33 906.73 232.33 906.73 233.48 904.15 233.48 904.15 235.22 906.73 235.22 906.73 236.23 908.71 236.23 908.71 229.58 906.73 229.58" style="fill: #002f87;"/>
          <polygon points="899.33 239.46 899.33 237.39 897.35 237.39 897.35 241.29 909.01 241.29 909.01 239.46 899.33 239.46" style="fill: #002f87;"/>
          <polygon points="894.62 231.99 892.66 231.99 892.66 229.58 890.68 229.58 890.68 236.23 892.66 236.23 892.66 233.82 894.62 233.82 894.62 231.99" style="fill: #002f87;"/>
          <polygon points="880.84 237.18 880.84 239.02 890.62 239.02 890.62 241.29 892.6 241.29 892.6 237.18 880.84 237.18" style="fill: #002f87;"/>
          <path d="M881.14,232.95c0,1.73,1.41,3.14,3.14,3.14s3.14-1.41,3.14-3.14c0-.56-.15-1.08-.4-1.54h1.39v-1.84h-3.13v-1.39h-2v1.39h-3.13v1.84h1.39c-.26.45-.4.98-.4,1.54ZM884.29,234.1c-.63,0-1.15-.51-1.15-1.15s.51-1.15,1.15-1.15,1.15.51,1.15,1.15-.51,1.15-1.15,1.15Z" style="fill: #002f87;"/>
        </g>
      </g>
    </g>
    <g>
      <path d="M787.09,221.86c0-.52.15-1.01.4-1.43l-6.62-5.62-14.4,11.37,20.62-4.2s0-.08,0-.12Z" style="fill: #002f87;"/>
      <path d="M789.83,219.11c.85,0,1.61.38,2.11.99l16.28-9.7-26.44,4.06,6.26,5.32c.48-.41,1.1-.66,1.79-.66Z" style="fill: #002f87;"/>
      <path d="M804.99,235.77c.63.2,1.15.61,1.5,1.15l17.98-7.77-15.52-5.5c-.46.85-1.35,1.42-2.38,1.43l-1.57,10.68Z" style="fill: #002f87;"/>
      <path d="M803.82,222.7l-11.29-.33c-.09.47-.3.9-.6,1.26l10.79,12.44c.41-.26.9-.41,1.42-.42l1.57-10.68c-1.01-.32-1.76-1.19-1.9-2.27Z" style="fill: #002f87;"/>
      <path d="M809.28,222.35c0,.17-.02.34-.05.5l15.87,5.62-15.31-17.41-2.24,8.74c1.01.4,1.73,1.39,1.73,2.55Z" style="fill: #002f87;"/>
      <path d="M792.55,221.51l11.29.33c.24-1.27,1.35-2.24,2.7-2.24.06,0,.12,0,.18,0l2.21-8.63-16.55,9.86c.08.21.14.43.17.67Z" style="fill: #002f87;"/>
      <path d="M779.1,238.56l-.03,6.4,14.67.52-12.97-7.85c-.42.49-1.01.84-1.68.94Z" style="fill: #002f87;"/>
      <path d="M775.94,235.85c0-.43.1-.84.28-1.2l-9.77-6.84,11.77,16.81.02-6.06c-1.31-.21-2.3-1.34-2.3-2.71Z" style="fill: #002f87;"/>
      <path d="M787.26,222.82l-20.47,4.17,9.92,6.94c.5-.52,1.2-.84,1.97-.84.49,0,.95.13,1.35.36l7.77-9.75c-.23-.26-.42-.56-.54-.89Z" style="fill: #002f87;"/>
      <path d="M793.84,244.52l-3.91-19.92s-.07,0-.1,0c-.49,0-.95-.13-1.35-.36l-7.77,9.75c.45.49.72,1.14.72,1.85,0,.37-.07.72-.2,1.04l12.62,7.64Z" style="fill: #002f87;"/>
      <path d="M794.79,244.9l6.96-5.22c-.2-.38-.32-.82-.32-1.28,0-.67.24-1.29.64-1.77l-10.79-12.44c-.16.1-.33.18-.51.25l4.02,20.47Z" style="fill: #ce0e2d;"/>
      <path d="M806.92,238.39c0,.26-.04.51-.11.75l15.51,7.19,2.85-16.55-18.34,7.92c.06.22.09.44.09.68Z" style="fill: #ce0e2d;"/>
      <path d="M804.46,241.12l-.94,18.07,18.45-12.07-15.52-7.2c-.44.66-1.16,1.11-1.99,1.2Z" style="fill: #ce0e2d;"/>
      <path d="M802.27,240.36l-7.32,5.5,7.73,13.19.93-17.97c-.51-.11-.97-.36-1.34-.71Z" style="fill: #ce0e2d;"/>
    </g>
  </g>
  <g>
    <path d="M152.41,114.03h2.04v6.41h.17l5.61-6.41h2.58l-5.43,6.05,5.45,7.38h-2.48l-4.32-5.99-1.58,1.83v4.17h-2.04v-13.43Z" style="fill: #231f20;"/>
    <path d="M163.45,127.46l4.82-13.43h2.37l4.83,13.43h-2.18l-3.79-10.97h-.11l-3.79,10.97h-2.15ZM172.94,122.2v1.71h-6.98v-1.71h6.98Z" style="fill: #231f20;"/>
    <path d="M179.23,127.46h-2.04v-13.43h2.04v13.43Z" style="fill: #231f20;"/>
    <path d="M188.86,116.51c-.24-.3-.56-.52-.96-.67-.4-.15-.86-.22-1.37-.22s-1.01.08-1.42.25-.72.4-.95.7c-.22.3-.33.64-.33,1.03,0,.57.23,1.01.7,1.31.47.31,1.05.54,1.75.71l1.29.34c1.12.28,2.05.71,2.78,1.28.73.57,1.1,1.41,1.1,2.51,0,.76-.2,1.44-.59,2.04-.39.6-.96,1.06-1.72,1.4-.75.33-1.64.5-2.68.5s-1.87-.16-2.6-.48c-.73-.32-1.31-.78-1.73-1.36-.42-.59-.65-1.29-.7-2.1h2.04c.04.46.19.86.46,1.18.27.32.63.57,1.06.73.44.16.92.24,1.45.23.57,0,1.08-.09,1.53-.27.45-.18.8-.43,1.06-.76.25-.33.38-.71.38-1.14,0-.37-.11-.69-.32-.95-.21-.26-.5-.47-.86-.63-.37-.16-.82-.31-1.35-.45l-1.6-.42c-1.13-.31-1.99-.75-2.59-1.33-.6-.58-.9-1.32-.9-2.23,0-.76.21-1.43.62-2.02.41-.59.98-1.04,1.71-1.36.73-.32,1.54-.48,2.44-.48s1.7.16,2.41.48c.71.32,1.26.76,1.66,1.33.4.57.6,1.2.62,1.92h-1.98c-.04-.41-.18-.76-.42-1.06Z" style="fill: #231f20;"/>
    <path d="M192.97,114.03h10.42v1.75h-4.17v11.68h-2.05v-11.68h-4.19v-1.75Z" style="fill: #231f20;"/>
    <path d="M211.06,117.57c.47-1.47,1.14-2.84,2.03-4.12h1.82c-.43.62-.83,1.43-1.22,2.4-.38.98-.69,2.04-.93,3.18-.24,1.14-.35,2.24-.35,3.31s.12,2.16.35,3.3c.23,1.14.54,2.2.93,3.18.38.99.79,1.8,1.22,2.43h-1.82c-.88-1.28-1.56-2.66-2.03-4.13-.47-1.47-.7-3.06-.71-4.78,0-1.71.24-3.3.71-4.77Z" style="fill: #231f20;"/>
    <path d="M216.9,114.03h8.43v1.75h-6.39v4.08h5.95v1.74h-5.95v4.1h6.46v1.75h-8.5v-13.43Z" style="fill: #231f20;"/>
    <path d="M232.72,127.46h-2.06v-11.38h-.07l-3.2,2.1v-1.96l3.33-2.19h2v13.43Z" style="fill: #231f20;"/>
    <path d="M241.25,127.46h-2.06v-11.38h-.07l-3.2,2.1v-1.96l3.33-2.19h2v13.43Z" style="fill: #231f20;"/>
    <path d="M251.6,127.17c-.68-.32-1.22-.76-1.62-1.32-.4-.56-.62-1.2-.64-1.91h1.98c.04.38.17.72.41,1.02.23.3.54.54.92.71.38.18.79.26,1.24.26.54,0,1.02-.12,1.44-.36.42-.24.75-.57.99-1,.24-.42.36-.89.36-1.41s-.12-1.03-.37-1.46c-.24-.43-.59-.76-1.03-1.01-.44-.25-.94-.37-1.49-.37-.56-.01-1.03.08-1.43.27-.4.19-.71.5-.93.9h-1.92l.87-7.48h7.61v1.75h-5.91l-.46,3.75h.12c.29-.27.66-.48,1.11-.65.45-.17.92-.25,1.42-.25.83,0,1.59.19,2.26.57.67.38,1.2.91,1.57,1.6.38.69.57,1.46.57,2.31s-.2,1.65-.61,2.34c-.41.69-.97,1.22-1.7,1.62-.72.39-1.55.58-2.47.58-.84,0-1.6-.16-2.28-.48Z" style="fill: #231f20;"/>
    <path d="M265.57,118.97h-5.51v-1.58h5.51v1.58ZM263.52,114.98v9.53c0,.35.05.63.16.82.1.2.24.33.42.4.17.07.38.11.62.11.1,0,.22,0,.35,0,.13,0,.25,0,.38,0l.27-.02v1.71c-.37.05-.77.08-1.22.08-.54,0-1.03-.1-1.48-.3-.45-.2-.81-.5-1.08-.9-.27-.4-.4-.9-.4-1.48v-9.93h1.99Z" style="fill: #231f20;"/>
    <path d="M269.71,127.46h-1.98v-13.43h1.95v5h.13c.24-.56.61-1,1.1-1.31.49-.31,1.12-.46,1.88-.46.7,0,1.31.14,1.83.43.52.29.92.72,1.2,1.29.28.57.42,1.26.42,2.08v6.41h-1.98v-6.18c0-.49-.09-.91-.26-1.25-.17-.35-.42-.61-.74-.79-.32-.18-.71-.27-1.15-.27-.47,0-.88.1-1.24.29-.36.19-.64.48-.85.86-.21.38-.32.83-.32,1.36v5.97Z" style="fill: #231f20;"/>
    <path d="M288.1,118.97h-5.71v-1.58h5.71v1.58ZM284.32,114.7c.25-.42.6-.75,1.04-.97.45-.22.98-.33,1.6-.33.23,0,.46.01.69.04.23.02.45.06.65.09v1.65c-.17-.02-.39-.04-.65-.07h-.19c-.53,0-.91.11-1.16.33-.25.22-.37.58-.36,1.06v10.97h-1.99v-11.24c0-.59.12-1.09.37-1.52Z" style="fill: #231f20;"/>
    <path d="M291.88,127.46h-1.98v-13.43h1.98v13.43Z" style="fill: #231f20;"/>
    <path d="M296.06,127.02c-.71-.43-1.26-1.04-1.65-1.82-.39-.78-.58-1.69-.58-2.72s.19-1.95.58-2.74c.39-.79.94-1.39,1.65-1.83.71-.43,1.54-.65,2.49-.65s1.76.22,2.47.65c.71.43,1.26,1.04,1.64,1.83.38.79.58,1.7.58,2.74s-.19,1.94-.58,2.72c-.38.78-.93,1.39-1.64,1.82-.71.43-1.53.65-2.47.65s-1.78-.22-2.49-.65ZM300.04,125.54c.4-.32.71-.74.9-1.28.2-.54.3-1.14.3-1.8s-.1-1.26-.3-1.8c-.2-.54-.5-.97-.9-1.28-.41-.32-.9-.48-1.49-.48s-1.09.16-1.5.48-.71.75-.91,1.28c-.2.54-.3,1.14-.31,1.8,0,.66.11,1.26.31,1.8.2.54.51.96.91,1.28.41.31.91.47,1.5.47s1.08-.16,1.49-.47Z" style="fill: #231f20;"/>
    <path d="M306.98,127.02c-.71-.43-1.26-1.04-1.65-1.82-.39-.78-.58-1.69-.58-2.72s.19-1.95.58-2.74c.39-.79.94-1.39,1.65-1.83.71-.43,1.54-.65,2.49-.65s1.76.22,2.47.65c.71.43,1.26,1.04,1.64,1.83.38.79.58,1.7.58,2.74s-.19,1.94-.58,2.72c-.38.78-.93,1.39-1.64,1.82-.71.43-1.53.65-2.47.65s-1.78-.22-2.49-.65ZM310.96,125.54c.4-.32.71-.74.9-1.28.2-.54.3-1.14.3-1.8s-.1-1.26-.3-1.8c-.2-.54-.5-.97-.9-1.28-.41-.32-.9-.48-1.49-.48s-1.09.16-1.5.48-.71.75-.91,1.28c-.2.54-.3,1.14-.31,1.8,0,.66.11,1.26.31,1.8.2.54.51.96.91,1.28.41.31.91.47,1.5.47s1.08-.16,1.49-.47Z" style="fill: #231f20;"/>
    <path d="M316.13,117.39h1.91v1.61h.11c.18-.54.5-.97.96-1.29.46-.32.99-.48,1.57-.48.47.01.75.03.85.05v1.89c-.12-.03-.27-.06-.46-.09-.19-.03-.38-.04-.58-.04-.45,0-.86.1-1.22.3-.36.2-.65.47-.86.81-.21.34-.32.73-.32,1.16v6.14h-1.98v-10.08Z" style="fill: #231f20;"/>
    <path d="M326.99,122.34c0,1.71-.24,3.31-.71,4.78-.47,1.47-1.14,2.85-2.03,4.13h-1.82c.43-.63.83-1.44,1.22-2.43.38-.99.69-2.05.93-3.18.23-1.13.35-2.23.35-3.3s-.12-2.17-.35-3.31c-.24-1.14-.54-2.2-.93-3.18-.38-.98-.79-1.78-1.22-2.4h1.82c.88,1.27,1.56,2.65,2.03,4.12.47,1.47.7,3.06.71,4.77Z" style="fill: #231f20;"/>
    <path d="M330.71,131.3h-1.57l.98-5.12h2.09l-1.5,5.12Z" style="fill: #231f20;"/>
    <path d="M339.28,125.98l4.67-4.7c.56-.58.98-1.05,1.29-1.42.3-.37.53-.72.69-1.06.16-.34.24-.7.24-1.08,0-.43-.11-.81-.32-1.14-.22-.33-.51-.58-.89-.76-.38-.18-.8-.27-1.27-.27-.5,0-.92.1-1.29.29-.37.2-.65.47-.85.83-.2.36-.3.78-.3,1.25h-1.94c0-.81.18-1.52.56-2.14.38-.62.9-1.09,1.58-1.43.67-.34,1.44-.51,2.29-.51s1.6.17,2.27.5c.67.33,1.18.79,1.55,1.36s.56,1.23.56,1.94c0,.52-.1,1.02-.29,1.49-.19.47-.51,1-.97,1.58-.46.58-1.12,1.28-1.96,2.12l-2.74,2.77v.1h6.19v1.75h-9.03v-1.48Z" style="fill: #231f20;"/>
    <path d="M357.71,114.47c.76.41,1.38,1.09,1.85,2.04.47.96.71,2.21.72,3.76,0,1.55-.21,2.87-.64,3.97-.42,1.1-1.03,1.95-1.82,2.53-.79.58-1.72.87-2.8.87-.81,0-1.54-.16-2.18-.48-.65-.32-1.17-.75-1.57-1.31-.4-.55-.66-1.2-.76-1.92h2.02c.09.39.24.73.47,1.01.23.28.51.51.85.67.34.16.73.24,1.17.24.69,0,1.28-.19,1.77-.58.49-.39.87-.94,1.13-1.67.26-.73.39-1.6.4-2.63h-.17c-.24.38-.54.7-.89.97-.35.27-.75.48-1.18.63-.43.15-.89.22-1.36.22-.8,0-1.53-.19-2.19-.57-.66-.38-1.19-.9-1.57-1.57-.39-.67-.58-1.42-.58-2.25s.2-1.63.6-2.32c.4-.7.97-1.24,1.7-1.64.73-.4,1.57-.59,2.52-.59.9.01,1.73.22,2.5.63ZM353.77,115.93c-.43.25-.77.59-1.02,1.02-.25.43-.37.9-.36,1.41,0,.51.12.98.36,1.41.24.42.57.76.99,1.01.42.25.9.37,1.44.37s1.01-.13,1.45-.39c.44-.26.79-.61,1.05-1.04.26-.43.39-.89.39-1.38,0-.48-.13-.94-.38-1.37-.24-.43-.58-.77-1.02-1.03-.43-.26-.92-.38-1.45-.38s-1.02.13-1.46.38Z" style="fill: #231f20;"/>
    <path d="M367.53,127.46h-2.06v-11.38h-.07l-3.2,2.1v-1.96l3.33-2.19h2v13.43Z" style="fill: #231f20;"/>
    <path d="M371.11,131.3h-1.57l.98-5.12h2.09l-1.5,5.12Z" style="fill: #231f20;"/>
    <path d="M381.92,127.46h-2.04v-13.43h2.04v13.43ZM380.91,127.46v-1.79h3.21c1.01,0,1.85-.19,2.53-.57.68-.38,1.18-.94,1.52-1.67.34-.73.51-1.63.51-2.7s-.17-1.94-.5-2.68c-.33-.73-.83-1.29-1.49-1.67-.66-.38-1.47-.57-2.44-.57h-3.4v-1.79h3.53c1.31,0,2.44.27,3.4.8.95.53,1.68,1.3,2.19,2.31.5,1.01.76,2.21.76,3.59s-.25,2.6-.77,3.61c-.51,1.01-1.25,1.78-2.22,2.32-.97.54-2.13.81-3.47.81h-3.33Z" style="fill: #231f20;"/>
    <path d="M398.25,122.94c-.15,0-.38.03-.67.05-.41.02-.8.04-1.17.07-.67.05-1.18.2-1.55.46-.37.26-.55.63-.56,1.11,0,.32.08.58.25.8s.39.38.67.5c.28.11.61.16.99.16.52,0,.97-.1,1.36-.31.39-.21.69-.48.9-.83.21-.35.32-.72.32-1.13v-3.17c0-.38-.08-.71-.24-.98-.15-.27-.38-.47-.69-.61-.31-.14-.69-.21-1.13-.21-.57,0-1.03.12-1.39.35-.36.23-.58.54-.68.93h-1.99c.06-.56.27-1.05.63-1.49.36-.44.83-.78,1.43-1.02.6-.24,1.29-.37,2.06-.37.65,0,1.27.1,1.86.29.59.2,1.09.55,1.49,1.08.4.52.6,1.24.6,2.15v6.69h-1.92v-1.38h-.07c-.22.45-.58.82-1.09,1.13-.5.31-1.14.47-1.9.47-.65,0-1.23-.13-1.74-.37-.51-.24-.92-.59-1.22-1.05-.3-.46-.45-1.01-.45-1.65,0-1.04.35-1.79,1.06-2.24.71-.45,1.61-.7,2.71-.78.3-.03.63-.05,1-.07.37-.02.73-.04,1.09-.06.23,0,.46-.01.69-.02l.02,1.44c-.3.02-.52.03-.67.04Z" style="fill: #231f20;"/>
    <path d="M404.95,127.03c-.72-.43-1.28-1.03-1.67-1.81-.39-.78-.58-1.69-.58-2.72s.19-1.94.58-2.74c.39-.8.94-1.42,1.64-1.85.7-.44,1.52-.65,2.44-.65.81,0,1.55.17,2.23.52.68.35,1.22.9,1.63,1.66.41.76.61,1.71.61,2.87v.7h-8.02v-1.47h6.09c0-.5-.1-.95-.31-1.36-.21-.41-.5-.72-.89-.95-.38-.23-.82-.34-1.32-.34-.54,0-1.01.13-1.42.39-.41.26-.73.61-.95,1.05-.23.44-.34.91-.35,1.41v1.15c0,.66.12,1.23.36,1.7.24.47.58.83,1,1.09.43.25.92.38,1.48.38.36,0,.68-.06.97-.16.29-.1.54-.23.74-.39.2-.16.36-.35.48-.56h2.01c-.15.55-.42,1.03-.8,1.44-.38.41-.86.73-1.45.95-.58.23-1.24.34-1.96.34-.98,0-1.83-.21-2.55-.64Z" style="fill: #231f20;"/>
    <path d="M415.77,127.46h-1.98v-13.43h1.95v5h.13c.24-.56.61-1,1.1-1.31.49-.31,1.12-.46,1.88-.46.7,0,1.31.14,1.83.43.52.29.92.72,1.2,1.29.28.57.42,1.26.42,2.08v6.41h-1.98v-6.18c0-.49-.09-.91-.26-1.25-.17-.35-.42-.61-.74-.79-.32-.18-.71-.27-1.15-.27-.47,0-.88.1-1.24.29-.36.19-.64.48-.85.86-.21.38-.32.83-.32,1.36v5.97Z" style="fill: #231f20;"/>
    <path d="M430.13,122.94c-.15,0-.38.03-.67.05-.41.02-.8.04-1.17.07-.67.05-1.18.2-1.55.46-.37.26-.55.63-.56,1.11,0,.32.08.58.25.8s.39.38.67.5c.28.11.61.16.99.16.52,0,.97-.1,1.36-.31.39-.21.69-.48.9-.83.21-.35.32-.72.32-1.13v-3.17c0-.38-.08-.71-.24-.98-.15-.27-.38-.47-.69-.61-.31-.14-.69-.21-1.13-.21-.57,0-1.03.12-1.39.35-.36.23-.58.54-.68.93h-1.99c.06-.56.27-1.05.63-1.49.36-.44.83-.78,1.43-1.02.6-.24,1.29-.37,2.06-.37.65,0,1.27.1,1.86.29.59.2,1.09.55,1.49,1.08.4.52.6,1.24.6,2.15v6.69h-1.92v-1.38h-.07c-.22.45-.58.82-1.09,1.13-.5.31-1.14.47-1.9.47-.65,0-1.23-.13-1.74-.37-.51-.24-.92-.59-1.22-1.05-.3-.46-.45-1.01-.45-1.65,0-1.04.35-1.79,1.06-2.24.71-.45,1.61-.7,2.71-.78.3-.03.63-.05,1-.07.37-.02.73-.04,1.09-.06.23,0,.46-.01.69-.02l.02,1.44c-.3.02-.52.03-.67.04Z" style="fill: #231f20;"/>
    <path d="M435.03,114.03h1.98v13.43h-1.98v-13.43ZM436.83,121.64h.35l4-4.25h2.37l-4.58,4.86h-.32l-1.8,1.8-.02-2.41ZM437.8,122.7l1.35-1.39,4.67,6.16h-2.42l-3.6-4.77Z" style="fill: #231f20;"/>
    <path d="M450.38,122.65h-5.97v-1.71h5.97v1.71Z" style="fill: #231f20;"/>
    <path d="M452.77,117.39h1.91v1.61h.11c.18-.54.5-.97.96-1.29.46-.32.99-.48,1.57-.48.47.01.75.03.85.05v1.89c-.12-.03-.27-.06-.46-.09-.19-.03-.38-.04-.58-.04-.45,0-.86.1-1.22.3-.36.2-.65.47-.86.81-.21.34-.32.73-.32,1.16v6.14h-1.98v-10.08Z" style="fill: #231f20;"/>
    <path d="M461.12,127.02c-.71-.43-1.26-1.04-1.65-1.82-.39-.78-.58-1.69-.58-2.72s.19-1.95.58-2.74c.39-.79.94-1.39,1.65-1.83.71-.43,1.54-.65,2.49-.65s1.76.22,2.47.65c.71.43,1.26,1.04,1.64,1.83.38.79.58,1.7.58,2.74s-.19,1.94-.58,2.72c-.38.78-.93,1.39-1.64,1.82-.71.43-1.53.65-2.47.65s-1.78-.22-2.49-.65ZM465.1,125.54c.4-.32.71-.74.9-1.28.2-.54.3-1.14.3-1.8s-.1-1.26-.3-1.8c-.2-.54-.5-.97-.9-1.28-.41-.32-.9-.48-1.49-.48s-1.09.16-1.5.48-.71.75-.91,1.28c-.2.54-.3,1.14-.31,1.8,0,.66.11,1.26.31,1.8.2.54.51.96.91,1.28.41.31.91.47,1.5.47s1.08-.16,1.49-.47Z" style="fill: #231f20;"/>
    <path d="M471.16,131.3h-1.57l.98-5.12h2.09l-1.5,5.12Z" style="fill: #231f20;"/>
    <path d="M481.2,114.03l3.5,6.09h.15l3.5-6.09h2.33l-4.87,8.16v5.27h-2.05v-5.27l-4.86-8.16h2.31Z" style="fill: #231f20;"/>
    <path d="M497.86,117.39h1.97v10.08h-1.93v-1.74h-.11c-.25.56-.63,1.02-1.15,1.36-.52.34-1.14.51-1.86.51-.66,0-1.24-.15-1.74-.44-.5-.29-.88-.72-1.16-1.29-.27-.57-.41-1.26-.41-2.07v-6.4h1.98v6.17c0,.45.09.84.26,1.18.17.33.41.59.72.78.31.19.66.28,1.06.28.38,0,.76-.09,1.13-.28.37-.19.67-.48.9-.86.23-.38.35-.84.35-1.38v-5.88Z" style="fill: #231f20;"/>
    <path d="M507.27,119.17c-.32-.24-.75-.35-1.28-.35-.37,0-.7.06-1,.18-.29.12-.53.28-.7.49-.17.21-.25.44-.25.69,0,.3.14.55.39.77.25.21.65.38,1.2.5l1.6.37c.92.21,1.61.54,2.07.99.46.45.69,1.03.7,1.74,0,.61-.17,1.15-.5,1.62-.33.47-.8.84-1.42,1.1-.62.27-1.36.4-2.2.4-.8,0-1.49-.12-2.07-.35-.58-.23-1.04-.57-1.39-1.01-.34-.44-.56-.97-.64-1.6h2.03c.09.45.3.79.64,1.02.34.23.81.34,1.41.33.43,0,.8-.05,1.12-.16.32-.11.57-.27.74-.47.17-.21.26-.45.26-.74,0-.32-.13-.59-.38-.8-.25-.21-.65-.38-1.18-.5l-1.57-.35c-.9-.2-1.59-.53-2.06-1-.47-.47-.7-1.05-.7-1.75,0-.59.16-1.11.49-1.57.32-.46.78-.82,1.37-1.07.59-.25,1.27-.38,2.05-.38.73,0,1.37.12,1.93.36s.99.57,1.31,1.01c.32.43.51.94.57,1.51h-1.89c-.1-.41-.31-.73-.63-.96Z" style="fill: #231f20;"/>
    <path d="M513.73,127.03c-.72-.43-1.28-1.03-1.67-1.81-.39-.78-.58-1.69-.58-2.72s.19-1.94.58-2.74c.39-.8.94-1.42,1.64-1.85.7-.44,1.52-.65,2.44-.65.81,0,1.55.17,2.23.52.68.35,1.22.9,1.63,1.66.41.76.61,1.71.61,2.87v.7h-8.02v-1.47h6.09c0-.5-.1-.95-.31-1.36-.21-.41-.5-.72-.89-.95-.38-.23-.82-.34-1.32-.34-.54,0-1.01.13-1.42.39-.41.26-.73.61-.95,1.05-.23.44-.34.91-.35,1.41v1.15c0,.66.12,1.23.36,1.7.24.47.58.83,1,1.09.43.25.92.38,1.48.38.36,0,.68-.06.97-.16.29-.1.54-.23.74-.39.2-.16.36-.35.48-.56h2.01c-.15.55-.42,1.03-.8,1.44-.38.41-.86.73-1.45.95-.58.23-1.24.34-1.96.34-.98,0-1.83-.21-2.55-.64Z" style="fill: #231f20;"/>
    <path d="M524.36,127.02c-.71-.43-1.26-1.04-1.65-1.82-.39-.78-.58-1.69-.58-2.72s.19-1.95.58-2.74c.39-.79.94-1.39,1.65-1.83.71-.43,1.54-.65,2.49-.65s1.76.22,2.47.65c.71.43,1.26,1.04,1.64,1.83.38.79.58,1.7.58,2.74s-.19,1.94-.58,2.72c-.38.78-.93,1.39-1.64,1.82-.71.43-1.53.65-2.47.65s-1.78-.22-2.49-.65ZM528.33,125.54c.4-.32.71-.74.9-1.28.2-.54.3-1.14.3-1.8s-.1-1.26-.3-1.8c-.2-.54-.5-.97-.9-1.28-.41-.32-.9-.48-1.49-.48s-1.09.16-1.5.48-.71.75-.91,1.28c-.2.54-.3,1.14-.31,1.8,0,.66.11,1.26.31,1.8.2.54.51.96.91,1.28.41.31.91.47,1.5.47s1.08-.16,1.49-.47Z" style="fill: #231f20;"/>
    <path d="M535.48,127.46h-1.98v-10.08h1.89v1.64h.13c.24-.56.61-.99,1.12-1.3.5-.31,1.12-.47,1.86-.47.69,0,1.29.14,1.8.43.51.29.91.72,1.19,1.29.28.57.42,1.26.42,2.07v6.41h-1.98v-6.18c0-.48-.08-.89-.25-1.24s-.41-.62-.73-.8c-.32-.18-.7-.27-1.15-.27s-.86.1-1.22.29c-.35.19-.63.48-.83.86-.2.38-.3.83-.3,1.36v5.97Z" style="fill: #231f20;"/>
    <path d="M546.34,131.1c-.64-.24-1.15-.58-1.52-1.04-.38-.45-.59-.99-.64-1.61h2.01c.09.47.35.82.77,1.06.42.24.96.35,1.64.35.81,0,1.44-.18,1.89-.55.45-.37.67-.94.67-1.7v-1.98h-.12l-.04.06c-.17.3-.37.56-.58.78-.21.22-.51.42-.9.59-.39.17-.86.25-1.41.25-.8,0-1.53-.2-2.16-.58-.64-.39-1.14-.96-1.51-1.72-.37-.75-.55-1.65-.55-2.7s.18-1.95.55-2.71c.36-.76.87-1.35,1.51-1.74.64-.4,1.37-.6,2.18-.6.53,0,.99.08,1.36.25.38.17.67.36.88.58.21.22.41.49.61.8.02.04.05.08.07.12h.12v-1.62h1.95v10.3c0,.83-.2,1.53-.59,2.1-.39.56-.93.98-1.61,1.26-.68.28-1.47.41-2.36.41-.84,0-1.58-.12-2.22-.36ZM549.98,125.27c.39-.27.69-.65.89-1.14.21-.5.31-1.09.31-1.77s-.1-1.29-.31-1.8c-.2-.52-.5-.91-.89-1.19-.39-.28-.87-.42-1.43-.42s-1.05.15-1.45.44c-.4.29-.69.7-.9,1.21-.2.52-.3,1.11-.3,1.76s.1,1.24.31,1.74c.2.5.5.88.9,1.16.39.28.87.41,1.44.41s1.04-.13,1.43-.4Z" style="fill: #231f20;"/>
    <path d="M561.46,122.65h-5.97v-1.71h5.97v1.71Z" style="fill: #231f20;"/>
    <path d="M565.85,131.1c-.64-.24-1.15-.58-1.52-1.04-.38-.45-.59-.99-.64-1.61h2.01c.09.47.35.82.77,1.06.42.24.96.35,1.64.35.81,0,1.44-.18,1.89-.55.45-.37.67-.94.67-1.7v-1.98h-.12l-.04.06c-.17.3-.37.56-.58.78-.21.22-.51.42-.9.59-.39.17-.86.25-1.41.25-.8,0-1.53-.2-2.16-.58-.64-.39-1.14-.96-1.51-1.72-.37-.75-.55-1.65-.55-2.7s.18-1.95.55-2.71c.36-.76.87-1.35,1.51-1.74.64-.4,1.37-.6,2.18-.6.53,0,.99.08,1.36.25.38.17.67.36.88.58.21.22.41.49.61.8.02.04.05.08.07.12h.12v-1.62h1.95v10.3c0,.83-.2,1.53-.58,2.1-.39.56-.93.98-1.61,1.26-.68.28-1.47.41-2.36.41-.84,0-1.58-.12-2.22-.36ZM569.49,125.27c.39-.27.69-.65.89-1.14.2-.5.31-1.09.31-1.77s-.1-1.29-.31-1.8c-.2-.52-.5-.91-.89-1.19-.39-.28-.87-.42-1.43-.42s-1.05.15-1.45.44c-.4.29-.69.7-.9,1.21-.2.52-.3,1.11-.3,1.76s.1,1.24.31,1.74c.2.5.5.88.9,1.16.39.28.87.41,1.44.41s1.04-.13,1.43-.4Z" style="fill: #231f20;"/>
    <path d="M581.43,117.39h1.97v10.08h-1.93v-1.74h-.11c-.25.56-.63,1.02-1.15,1.36-.52.34-1.14.51-1.86.51-.66,0-1.24-.15-1.74-.44-.5-.29-.88-.72-1.16-1.29-.28-.57-.41-1.26-.41-2.07v-6.4h1.98v6.17c0,.45.09.84.26,1.18.17.33.41.59.72.78.31.19.66.28,1.06.28.38,0,.76-.09,1.13-.28.37-.19.67-.48.9-.86.23-.38.35-.84.35-1.38v-5.88Z" style="fill: #231f20;"/>
    <path d="M586.71,131.3h-1.57l.98-5.12h2.09l-1.5,5.12Z" style="fill: #231f20;"/>
    <path d="M597.52,127.46h-2.04v-13.43h2.04v13.43ZM596.51,127.46v-1.79h3.21c1.01,0,1.85-.19,2.53-.57.68-.38,1.18-.94,1.52-1.67.34-.73.51-1.63.51-2.7s-.17-1.94-.5-2.68c-.33-.73-.83-1.29-1.49-1.67-.66-.38-1.47-.57-2.44-.57h-3.41v-1.79h3.53c1.31,0,2.44.27,3.4.8.95.53,1.68,1.3,2.18,2.31.5,1.01.76,2.21.76,3.59s-.25,2.6-.77,3.61c-.51,1.01-1.25,1.78-2.22,2.32-.97.54-2.13.81-3.47.81h-3.33Z" style="fill: #231f20;"/>
    <path d="M613.85,122.94c-.15,0-.38.03-.67.05-.42.02-.8.04-1.17.07-.67.05-1.18.2-1.55.46-.37.26-.55.63-.56,1.11,0,.32.08.58.25.8.17.22.39.38.67.5.28.11.61.16.99.16.52,0,.97-.1,1.36-.31.39-.21.69-.48.9-.83.21-.35.32-.72.32-1.13v-3.17c0-.38-.08-.71-.24-.98-.15-.27-.38-.47-.69-.61-.31-.14-.69-.21-1.13-.21-.57,0-1.03.12-1.39.35-.36.23-.58.54-.68.93h-1.98c.06-.56.27-1.05.63-1.49.36-.44.83-.78,1.43-1.02.6-.24,1.29-.37,2.06-.37.65,0,1.27.1,1.86.29.59.2,1.09.55,1.49,1.08.4.52.6,1.24.6,2.15v6.69h-1.92v-1.38h-.07c-.22.45-.58.82-1.09,1.13-.5.31-1.13.47-1.9.47-.65,0-1.23-.13-1.74-.37-.51-.24-.92-.59-1.22-1.05-.3-.46-.45-1.01-.45-1.65,0-1.04.35-1.79,1.06-2.24.71-.45,1.61-.7,2.71-.78.3-.03.63-.05,1-.07.37-.02.73-.04,1.08-.06.23,0,.46-.01.69-.02l.02,1.44c-.3.02-.52.03-.67.04Z" style="fill: #231f20;"/>
    <path d="M620.54,127.03c-.72-.43-1.28-1.03-1.67-1.81-.39-.78-.58-1.69-.58-2.72s.19-1.94.58-2.74c.39-.8.94-1.42,1.64-1.85.7-.44,1.52-.65,2.44-.65.81,0,1.55.17,2.23.52.68.35,1.22.9,1.63,1.66.41.76.61,1.71.61,2.87v.7h-8.02v-1.47h6.09c0-.5-.1-.95-.31-1.36-.21-.41-.5-.72-.89-.95s-.82-.34-1.32-.34c-.54,0-1.01.13-1.42.39-.41.26-.73.61-.95,1.05-.23.44-.34.91-.35,1.41v1.15c0,.66.12,1.23.36,1.7.24.47.58.83,1,1.09.43.25.92.38,1.48.38.36,0,.68-.06.97-.16.29-.1.54-.23.74-.39.2-.16.36-.35.48-.56h2.01c-.16.55-.42,1.03-.8,1.44-.38.41-.86.73-1.45.95-.58.23-1.24.34-1.96.34-.98,0-1.83-.21-2.55-.64Z" style="fill: #231f20;"/>
    <path d="M631.37,117.39v10.72c0,.67-.12,1.24-.37,1.71-.25.47-.61.82-1.09,1.06-.48.24-1.07.36-1.77.36-.15,0-.29,0-.41,0v-1.71c.12,0,.23,0,.33,0,.3,0,.55-.05.75-.16.2-.11.34-.27.43-.48.09-.21.14-.47.14-.78v-10.72h1.98ZM629.73,115.67c-.19-.11-.34-.25-.45-.43-.11-.18-.17-.37-.17-.58s.05-.41.17-.58c.11-.18.26-.32.45-.43.19-.1.4-.16.63-.16s.43.05.62.16c.19.11.34.25.46.43.11.18.17.37.17.58s-.06.4-.17.58c-.11.18-.27.32-.46.43s-.4.16-.62.16-.44-.05-.63-.16Z" style="fill: #231f20;"/>
    <path d="M635.57,127.03c-.72-.43-1.28-1.03-1.67-1.81-.39-.78-.58-1.69-.58-2.72s.19-1.94.58-2.74c.39-.8.94-1.42,1.64-1.85.7-.44,1.52-.65,2.44-.65.81,0,1.55.17,2.23.52.68.35,1.22.9,1.63,1.66.41.76.61,1.71.61,2.87v.7h-8.02v-1.47h6.09c0-.5-.1-.95-.31-1.36-.21-.41-.5-.72-.89-.95s-.82-.34-1.32-.34c-.54,0-1.01.13-1.42.39-.41.26-.73.61-.95,1.05-.23.44-.34.91-.35,1.41v1.15c0,.66.12,1.23.36,1.7.24.47.58.83,1,1.09.43.25.92.38,1.48.38.36,0,.68-.06.97-.16.29-.1.54-.23.74-.39.2-.16.36-.35.48-.56h2.01c-.16.55-.42,1.03-.8,1.44-.38.41-.86.73-1.45.95-.59.23-1.24.34-1.96.34-.98,0-1.83-.21-2.55-.64Z" style="fill: #231f20;"/>
    <path d="M646.2,127.02c-.71-.43-1.26-1.04-1.65-1.82-.39-.78-.58-1.69-.58-2.72s.19-1.95.58-2.74c.39-.79.94-1.39,1.65-1.83.71-.43,1.54-.65,2.49-.65s1.76.22,2.47.65c.71.43,1.26,1.04,1.64,1.83.38.79.57,1.7.57,2.74s-.19,1.94-.57,2.72c-.38.78-.93,1.39-1.64,1.82-.71.43-1.53.65-2.47.65s-1.78-.22-2.49-.65ZM650.17,125.54c.4-.32.71-.74.9-1.28.2-.54.3-1.14.3-1.8s-.1-1.26-.3-1.8c-.2-.54-.5-.97-.9-1.28-.41-.32-.9-.48-1.49-.48s-1.09.16-1.5.48-.71.75-.91,1.28c-.2.54-.3,1.14-.31,1.8,0,.66.11,1.26.31,1.8.2.54.51.96.91,1.28.41.31.91.47,1.5.47s1.08-.16,1.49-.47Z" style="fill: #231f20;"/>
    <path d="M657.32,127.46h-1.98v-10.08h1.89v1.64h.13c.24-.56.61-.99,1.12-1.3s1.12-.47,1.86-.47c.69,0,1.29.14,1.8.43.51.29.91.72,1.19,1.29.28.57.42,1.26.42,2.07v6.41h-1.98v-6.18c0-.48-.08-.89-.25-1.24s-.41-.62-.73-.8c-.32-.18-.7-.27-1.15-.27s-.86.1-1.21.29c-.35.19-.63.48-.83.86-.2.38-.3.83-.3,1.36v5.97Z" style="fill: #231f20;"/>
  </g>
  <g>
    <path d="M746.01,99.39c0-4.59,1.95-7.27,5.2-7.27s5.2,2.68,5.2,7.27-1.93,7.27-5.2,7.27-5.2-2.64-5.2-7.27ZM754.26,99.39c0-3.52-1.15-5.45-3.05-5.45s-3.05,1.93-3.05,5.45,1.13,5.41,3.05,5.41,3.05-1.88,3.05-5.41Z" style="fill: #231f20;"/>
    <path d="M758.32,101.97l6.25-9.65h2.66v9.57h1.93v1.82h-1.93v2.75h-2.03v-2.75h-6.88v-1.74ZM765.19,101.89v-7.01h-.16l-4.45,6.89v.12h4.61Z" style="fill: #231f20;"/>
    <path d="M771.33,104.9l4.9-4.94c1.54-1.62,2.32-2.52,2.32-3.75,0-1.39-1.13-2.29-2.62-2.29-1.56,0-2.58,1-2.58,2.5h-2.03c-.02-2.58,1.95-4.3,4.65-4.3s4.61,1.72,4.63,4.02c-.02,1.58-.76,2.83-3.42,5.45l-2.87,2.91v.12h6.52v1.84h-9.51v-1.56Z" style="fill: #231f20;"/>
    <path d="M784.53,110.45h-1.91c1.35-1.95,2.64-5.88,2.64-9.38s-1.29-7.42-2.64-9.36h1.91c1.84,2.62,2.87,5.68,2.89,9.36-.02,3.69-1.05,6.76-2.89,9.38Z" style="fill: #231f20;"/>
    <path d="M795.17,102.77h2.19c.08,1.25,1.31,2.03,2.89,2.03,1.7,0,2.95-.94,2.95-2.3s-1.17-2.4-3.18-2.4h-1.21v-1.76h1.21c1.6,0,2.73-.9,2.73-2.25s-.96-2.17-2.46-2.17c-1.43,0-2.68.78-2.73,2.07h-2.07c.06-2.3,2.19-3.87,4.82-3.87,2.77,0,4.53,1.76,4.51,3.85.02,1.6-.98,2.77-2.5,3.14v.1c1.93.27,3.05,1.56,3.05,3.36,0,2.36-2.17,4.08-5.1,4.08s-5.02-1.58-5.1-3.89Z" style="fill: #231f20;"/>
    <path d="M807.75,102.77h2.09c.12,1.21,1.27,2.09,2.7,2.09,1.72,0,2.95-1.25,2.95-2.93s-1.27-2.97-3.05-2.99c-1.13,0-1.99.37-2.48,1.25h-2.03l.92-7.87h8.01v1.84h-6.23l-.47,3.96h.14c.59-.57,1.58-.96,2.66-.96,2.66,0,4.63,1.97,4.63,4.71s-2.09,4.79-5.04,4.79c-2.68,0-4.69-1.64-4.79-3.89Z" style="fill: #231f20;"/>
    <path d="M819.59,99.39c0-4.59,1.95-7.27,5.2-7.27s5.2,2.68,5.2,7.27-1.93,7.27-5.2,7.27-5.2-2.64-5.2-7.27ZM827.83,99.39c0-3.52-1.15-5.45-3.05-5.45s-3.05,1.93-3.05,5.45,1.13,5.41,3.05,5.41,3.05-1.88,3.05-5.41Z" style="fill: #231f20;"/>
    <path d="M838.47,100.29h-6.27v-1.8h6.27v1.8Z" style="fill: #231f20;"/>
    <path d="M846.35,106.46h-2.17v-11.99h-.08l-3.38,2.21v-2.05l3.52-2.3h2.11v14.14Z" style="fill: #231f20;"/>
    <path d="M849.86,102.77h2.19c.08,1.25,1.31,2.03,2.89,2.03,1.7,0,2.95-.94,2.95-2.3s-1.17-2.4-3.18-2.4h-1.21v-1.76h1.21c1.6,0,2.73-.9,2.73-2.25s-.96-2.17-2.46-2.17c-1.43,0-2.68.78-2.73,2.07h-2.07c.06-2.3,2.19-3.87,4.82-3.87,2.77,0,4.53,1.76,4.51,3.85.02,1.6-.98,2.77-2.5,3.14v.1c1.93.27,3.05,1.56,3.05,3.36,0,2.36-2.17,4.08-5.1,4.08s-5.02-1.58-5.1-3.89Z" style="fill: #231f20;"/>
    <path d="M862.19,99.86c0-4.92,2.13-7.73,5.53-7.73,2.6,0,4.41,1.62,4.75,3.87h-2.13c-.27-1.15-1.19-1.99-2.62-1.99-2.19,0-3.46,1.91-3.46,5.1h.16c.76-1.19,2.09-1.91,3.63-1.91,2.52,0,4.55,1.93,4.55,4.65s-2.01,4.84-5.06,4.82c-2.62-.02-5.35-1.56-5.35-6.8ZM870.51,101.87c0-1.62-1.23-2.93-2.93-2.93s-3.05,1.37-3.07,2.95c.02,1.56,1.27,2.97,3.01,2.97s2.99-1.33,2.99-2.99Z" style="fill: #231f20;"/>
    <path d="M880.25,106.46h-2.17v-11.99h-.08l-3.38,2.21v-2.05l3.52-2.3h2.11v14.14Z" style="fill: #231f20;"/>
  </g>
  <g>
    <path d="M746.31,163.86h2.01v1.68h.12c.39-1.13,1.45-1.84,2.7-1.84.25,0,.66.02.88.04v1.99c-.18-.04-.66-.12-1.09-.12-1.45,0-2.52,1-2.52,2.38v6.46h-2.09v-10.61Z" style="fill: #231f20;"/>
    <path d="M752.76,169.21c0-3.3,1.95-5.49,4.96-5.49s4.94,2.19,4.94,5.49-1.95,5.47-4.94,5.47-4.96-2.19-4.96-5.47ZM760.55,169.21c0-2.03-.92-3.77-2.83-3.77s-2.87,1.74-2.87,3.77.92,3.73,2.87,3.73,2.83-1.7,2.83-3.73Z" style="fill: #231f20;"/>
    <path d="M769.6,174.46h-2.25l-3.85-10.61h2.25l2.68,8.14h.1l2.68-8.14h2.25l-3.85,10.61Z" style="fill: #231f20;"/>
    <path d="M774.3,169.23c0-3.26,1.95-5.51,4.9-5.51,2.42,0,4.71,1.5,4.71,5.33v.74h-7.54c.06,2.01,1.24,3.16,2.99,3.16,1.19,0,1.95-.51,2.3-1.15h2.11c-.47,1.72-2.11,2.87-4.43,2.87-3.12,0-5.04-2.15-5.04-5.45ZM781.86,168.23c0-1.62-1.04-2.79-2.64-2.79s-2.75,1.29-2.83,2.79h5.47Z" style="fill: #231f20;"/>
    <path d="M788.07,174.46h-2.09v-14.14h2.09v14.14Z" style="fill: #231f20;"/>
    <path d="M790.79,178.39v-1.74c.23.02.64.04.94.04.64,0,1.19-.06,1.68-1.39l.25-.7-3.89-10.74h2.23l2.68,8.22h.12l2.68-8.22h2.25l-4.38,12.01c-.61,1.68-1.7,2.58-3.44,2.58-.43,0-.84-.02-1.11-.06Z" style="fill: #231f20;"/>
    <path d="M801.32,170.77h2.19c.08,1.25,1.31,2.03,2.89,2.03,1.7,0,2.95-.94,2.95-2.3s-1.17-2.4-3.18-2.4h-1.21v-1.76h1.21c1.6,0,2.73-.9,2.73-2.25s-.96-2.17-2.46-2.17c-1.43,0-2.68.78-2.73,2.07h-2.07c.06-2.3,2.19-3.87,4.82-3.87,2.77,0,4.53,1.76,4.51,3.85.02,1.6-.98,2.77-2.5,3.14v.1c1.93.27,3.05,1.56,3.05,3.36,0,2.36-2.17,4.08-5.1,4.08s-5.02-1.58-5.1-3.89Z" style="fill: #231f20;"/>
    <path d="M813.8,170.77h2.19c.08,1.25,1.31,2.03,2.89,2.03,1.7,0,2.95-.94,2.95-2.3s-1.17-2.4-3.18-2.4h-1.21v-1.76h1.21c1.6,0,2.73-.9,2.73-2.25s-.96-2.17-2.46-2.17c-1.43,0-2.68.78-2.73,2.07h-2.07c.06-2.3,2.19-3.87,4.82-3.87,2.77,0,4.53,1.76,4.51,3.85.02,1.6-.98,2.77-2.5,3.14v.1c1.93.27,3.05,1.56,3.05,3.36,0,2.36-2.17,4.08-5.1,4.08s-5.02-1.58-5.1-3.89Z" style="fill: #231f20;"/>
    <path d="M830.03,168.49c0-2.56,1.46-4.04,3.3-4.04,1.35,0,1.95.84,2.19,1.33h.1v-1.17h1.7v5.47c.02.72.31,1.05.9,1.05,1.09,0,1.84-1.27,1.84-3.16.02-3.54-2.52-5.86-6.15-5.86-3.77.02-6.17,2.81-6.17,6.39,0,3.89,2.09,6.45,6.09,6.41,1.39-.02,2.34-.12,3.5-.43v1.56c-1.04.29-2.21.47-3.5.47-4.84,0-7.73-3.09-7.73-8.01,0-4.63,3.24-7.99,7.81-7.99s7.79,3.16,7.79,7.4c0,3.01-1.52,4.75-3.61,4.73-1.26,0-2.22-.64-2.36-1.54h-.1c-.25.49-.86,1.46-2.29,1.46-1.88,0-3.3-1.5-3.3-4.06ZM835.65,168.47c-.02-1.46-.64-2.42-1.89-2.42s-1.89,1.04-1.89,2.42.68,2.48,1.89,2.48,1.88-1,1.89-2.48Z" style="fill: #231f20;"/>
    <path d="M843.93,160.32h2.09v8.01h.18l4.2-4.47h2.5l-4.28,4.55,4.57,6.05h-2.56l-3.59-4.77-1.02,1v3.77h-2.09v-14.14Z" style="fill: #231f20;"/>
    <path d="M858.02,168.29c.7-.05,2.3-.14,2.79-.16l-.02-.84c0-1.19-.72-1.89-2.15-1.89-1.23,0-1.97.57-2.19,1.35h-2.07c.2-1.76,1.84-3.03,4.34-3.03,1.68,0,4.16.62,4.16,3.69v7.05h-2.03v-1.45h-.08c-.41.8-1.39,1.68-3.14,1.68-2.01,0-3.57-1.15-3.57-3.22,0-2.42,2.05-3.05,3.96-3.18ZM858.09,173.04c1.7,0,2.71-1.13,2.71-2.4v-.98l-2.5.18c-1.37.1-2.23.61-2.23,1.66s.84,1.54,2.01,1.54Z" style="fill: #231f20;"/>
    <path d="M865.12,160.99c0-.68.61-1.23,1.33-1.23s1.31.55,1.31,1.23-.61,1.23-1.31,1.23-1.33-.55-1.33-1.23ZM865.4,163.86h2.09v10.61h-2.09v-10.61Z" style="fill: #231f20;"/>
    <path d="M873.97,165.36c-1.19,0-2.05.62-2.03,1.43-.02.62.49,1.07,1.66,1.35l1.68.39c1.95.43,2.89,1.37,2.91,2.87-.02,1.91-1.62,3.28-4.34,3.28-2.54,0-4.06-1.13-4.32-3.11h2.13c.18.96.92,1.43,2.17,1.43,1.35,0,2.21-.55,2.23-1.45-.02-.68-.53-1.13-1.64-1.39l-1.66-.35c-1.91-.43-2.91-1.45-2.91-2.91,0-1.89,1.64-3.18,4.1-3.18s3.83,1.21,4.04,3.03h-2.01c-.2-.84-.86-1.39-2.01-1.39Z" style="fill: #231f20;"/>
    <path d="M885.18,165.52h-2.17v5.82c0,1.19.61,1.41,1.27,1.43.29,0,.76-.04,1.05-.06v1.82c-.29.04-.74.08-1.31.08-1.64,0-3.11-.9-3.09-2.83v-6.25h-1.56v-1.66h1.56v-2.54h2.07v2.54h2.17v1.66Z" style="fill: #231f20;"/>
    <path d="M887.19,173.21c-.02-.76.62-1.39,1.39-1.39s1.39.62,1.39,1.39-.64,1.39-1.39,1.39-1.41-.62-1.39-1.39Z" style="fill: #231f20;"/>
    <path d="M895.96,168.29c.7-.05,2.29-.14,2.79-.16l-.02-.84c0-1.19-.72-1.89-2.15-1.89-1.23,0-1.97.57-2.19,1.35h-2.07c.2-1.76,1.84-3.03,4.34-3.03,1.68,0,4.16.62,4.16,3.69v7.05h-2.03v-1.45h-.08c-.41.8-1.39,1.68-3.14,1.68-2.01,0-3.57-1.15-3.57-3.22,0-2.42,2.05-3.05,3.96-3.18ZM896.04,173.04c1.7,0,2.71-1.13,2.71-2.4v-.98l-2.5.18c-1.37.1-2.23.61-2.23,1.66s.84,1.54,2.01,1.54Z" style="fill: #231f20;"/>
    <path d="M902.88,169.21c0-3.24,1.93-5.49,4.92-5.49,2.42,0,4.18,1.43,4.39,3.57h-2.03c-.21-1-1.02-1.84-2.32-1.84-1.72,0-2.87,1.43-2.87,3.69s1.13,3.75,2.87,3.75c1.17,0,2.07-.64,2.32-1.8h2.03c-.23,2.05-1.86,3.57-4.36,3.57-3.09,0-4.96-2.29-4.96-5.47Z" style="fill: #231f20;"/>
    <path d="M914.15,173.21c-.02-.76.62-1.39,1.39-1.39s1.39.62,1.39,1.39-.64,1.39-1.39,1.39-1.41-.62-1.39-1.39Z" style="fill: #231f20;"/>
    <path d="M919.44,160.32h2.09v8.01h.18l4.2-4.47h2.5l-4.28,4.55,4.57,6.05h-2.56l-3.59-4.77-1.02,1v3.77h-2.09v-14.14Z" style="fill: #231f20;"/>
    <path d="M930.05,163.86h2.01v1.68h.12c.39-1.13,1.45-1.84,2.7-1.84.25,0,.66.02.88.04v1.99c-.18-.04-.66-.12-1.09-.12-1.45,0-2.52,1-2.52,2.38v6.46h-2.09v-10.61Z" style="fill: #231f20;"/>
  </g>
</svg>